<svg xmlns="http://www.w3.org/2000/svg" width="188.06" height="216.52" viewBox="0 0 188.06 216.52">
  <g id="Calque_2" data-name="Calque 2">
    <g id="D-middle-draw">
      <g>
        <path d="M99,62.84a.45.45,0,0,0-.65-.05,9.58,9.58,0,0,1-2.5,1.42,10.19,10.19,0,0,0,.38-4.11c-.26-2.87-1.34-5.13-2.42-5s-1.75,2.51-1.5,5.38,1.34,5.14,2.42,5h.1a10.1,10.1,0,0,0,4.12-2A.47.47,0,0,0,99,62.84Z"/>
        <path d="M93.31,53.11a3,3,0,0,1,3.92,1.07c1.37,1.86,2.9,4.51,3.2,4.91s.87.21.61-1.24-2.31-5.3-4.55-6.57a4.27,4.27,0,0,0-5.34.48c-.36.39.86,3.14,1.27,3.11S92.62,53.5,93.31,53.11Z"/>
        <circle cx="102.58" cy="69.55" r="4.53"/>
        <ellipse cx="168.63" cy="184.78" rx="2.75" ry="5.34"/>
        <ellipse cx="11.36" cy="193.59" rx="4.95" ry="9.63" transform="translate(-29.97 4.12) rotate(-8.95)"/>
        <path d="M187.5,99.72l-3-3.88a2.63,2.63,0,0,0-3.69-.47l-16.53,12.82a6.28,6.28,0,0,0-2.41,4.61l-3,58H139.74c3.85-4.16,4.55-11.43,4.67-13.47,3.69-2.22,8.09-5.78,9.38-8.14,1.51-2.78-1.3-8-3.83-10.49-1.74-1.74-2.55-5.6-3.41-9.68-.18-.88-.37-1.78-.57-2.68a41.85,41.85,0,0,1-.89-6.37c-.19-2.32-.43-5.2-1.27-10.08a53.65,53.65,0,0,0-7.51-19,6,6,0,0,1-.75-1.55,4,4,0,0,0-1-1.76c-.25-.21-1-.82-4.53.17v-2.4l2.23-2.09c5.43,8.61,12,9.74,14.25,9.86h.58c4.23,0,4.66-2.54,4.68-2.65a1,1,0,0,0-.24-.78.94.94,0,0,0-.75-.31,5.19,5.19,0,0,1-4.44-2.41,5,5,0,0,1-.63-2,10.83,10.83,0,0,0,3,1.42,13.25,13.25,0,0,0,3.64.55,7.83,7.83,0,0,0,6.79-3.31,1,1,0,0,0-.8-1.44,7.41,7.41,0,0,1-3.42-.77c.63.06,1.28.1,1.93.1a20.52,20.52,0,0,0,5.82-.83,9.49,9.49,0,0,0,6.22-5.38A.94.94,0,0,0,167.82,74a17.85,17.85,0,0,1-5.68,0,3.63,3.63,0,0,1-1.55-.61,15,15,0,0,0,1.59.09,15.31,15.31,0,0,0,4.16-.58,12.46,12.46,0,0,0,8.5-8.56.94.94,0,0,0-.28-.91,1,1,0,0,0-.93-.21,8.58,8.58,0,0,1-6.36-.86c-2.82-1.65-2.09-6.14-1.18-10.22a43.28,43.28,0,0,1,1.45-4.34c1.78-4.86,4.47-12.19,3.86-17.86a21,21,0,0,0-5.93-12.35c-.21-4.22,5.46-8.09,5.52-8.13a1,1,0,0,0-.5-1.74c-4.11-.14-7.35,2.45-9.18,4.33-.87-7.58-6.05-10.31-6.3-10.43a.94.94,0,0,0-.9,1.66c1.09.63,1.25,3.79,1,6.36l-9.78-5.17c-11.29-6-27.94-5.31-38.56-1.58S81.6,18,83.45,28.64a18,18,0,0,0,2.86,6.73,22.7,22.7,0,0,0-2.24,6.47c-.7,3.75.08,10.71.5,14.44.09.77.16,1.39.2,1.8.23,2.72-.18,3.9-.4,4a.37.37,0,0,1-.14,0A4.41,4.41,0,0,0,80,63.37a3.87,3.87,0,0,0-.52,4.25A4.15,4.15,0,0,0,84,70.39a6.37,6.37,0,0,1-.88,3.34,1,1,0,0,0-.16.74.92.92,0,0,0,.43.62,11.91,11.91,0,0,0,5.32,1.36A11.44,11.44,0,0,0,93,75.68,47.28,47.28,0,0,1,88.39,80a1,1,0,0,0-.36.9c.39,2.47,3.36,5.69,7.57,8.2,3.63,2.16,10,1.94,12.56,1.75v4.8c-4.72,7.88-9.83,24.62-10.87,31.79a29.68,29.68,0,0,0,0,7.44c.3,3.21.5,5.32-1.44,7-2.51,2.25-3.29,3.84-3.46,4.83a88.18,88.18,0,0,0-15.34,4.62l-5-7.48A4.85,4.85,0,0,0,68,141.64H57.6V119.11H47.12v22.53H38.7a1,1,0,0,0-.47.13C17.74,153.54,1.21,173.35.12,183.2c-.92,8.22,3.76,21.31,5,24.69a2.78,2.78,0,0,0-1,3.59L5.9,215a2.8,2.8,0,0,0,2.53,1.57h9.51a2.82,2.82,0,0,0,2.82-2.82v-.16a22.13,22.13,0,0,1,6.47-15.49A20.72,20.72,0,0,1,42,191.82h0a21.16,21.16,0,0,1,20.81,17.36v1.1A6.24,6.24,0,0,0,69,216.52h52.43a4.72,4.72,0,0,0,4.21-2.55,45.85,45.85,0,0,0,2-4.57c2.94-7.78,7.44-15,20.39-15h26.86a.94.94,0,0,0,.94-.94V171.7a.94.94,0,0,0-.94-.94H169l2.87-54.71a2,2,0,0,1,.78-1.49L187,103.41A2.64,2.64,0,0,0,187.5,99.72ZM107.42,4.64C117.65,1.05,133.67.4,144.48,6.11l11,5.8a.93.93,0,0,0,.86,0,.92.92,0,0,0,.51-.7,23.18,23.18,0,0,0,.21-5.31,13.68,13.68,0,0,1,2.5,8.51.94.94,0,0,0,1.71.55,15.14,15.14,0,0,1,5.92-4.8c-1.88,1.9-4,4.76-3.56,7.94a1,1,0,0,0,.31.6,19.22,19.22,0,0,1,5.59,11.4c.57,5.22-2,12.3-3.75,17a42.55,42.55,0,0,0-1.52,4.59c-.76,3.42-2.17,9.78,2.07,12.27a10.24,10.24,0,0,0,6.14,1.34A10.44,10.44,0,0,1,165.83,71a13.08,13.08,0,0,1-7.17,0h-.12a11.09,11.09,0,0,1-.82-1.77.94.94,0,1,0-1.79.57c.07.22,1.75,5.41,6,6a22.05,22.05,0,0,0,4.37.21,8.17,8.17,0,0,1-4.11,2.74,18.07,18.07,0,0,1-9.57.2,10.18,10.18,0,0,1-1.12-4.84.94.94,0,1,0-1.88-.11c0,.18-.23,4.52,2.48,7.44a7.71,7.71,0,0,0,4.24,2.31c-1.24.87-3.48,1.71-7.05.69a9.61,9.61,0,0,1-3.59-2h0a26,26,0,0,1,.79-4.9.94.94,0,0,0-1.82-.5c-.21.76-2,7.52.12,10.84a6.89,6.89,0,0,0,4,3,6.27,6.27,0,0,1-2.19.22C144,91,135.2,89.38,130,73.79A29.66,29.66,0,0,0,132.46,70a9.63,9.63,0,0,0,.63-8.35,8,8,0,0,0-5.4-4.74c-3.78-1-7,1.75-8.75,3.78a23,23,0,0,0-.48-2.46.95.95,0,1,0-1.82.52,31.54,31.54,0,0,1,.79,5.39,28.64,28.64,0,0,0,.48,3.7s0,.07,0,.1a9.94,9.94,0,0,0,.52,1.72,4.73,4.73,0,0,1-1.27-1.17c-2.11-2.72-3.41-7.21-4.56-11.17a59.1,59.1,0,0,0-1.93-5.92C108.82,47,108,46,107.75,45.8a1,1,0,0,0-1.15-.1.94.94,0,0,0-.39,1.08c.34,1.08,1,3.23,1.42,5.29a16.82,16.82,0,0,0-2.84-2.67c-.49-.36-1.11-.8-1.85-1.31-5.25-3.7-16.17-11.38-17.63-19.77C83.7,19,97.1,8.26,107.42,4.64ZM37.61,144.34,35.55,168.8a8.07,8.07,0,0,1-8,7.36H4.78C10,166.91,22,153.72,37.61,144.34Zm-18.73,69.2v.16a.94.94,0,0,1-.94.93H8.43a1,1,0,0,1-.84-.52l-1.71-3.47a.91.91,0,0,1,0-.9.93.93,0,0,1,.8-.45H19.27A23.25,23.25,0,0,0,18.88,213.54ZM124,213.1a2.85,2.85,0,0,1-2.54,1.53H69a4.35,4.35,0,0,1-4.35-4.35V210h60.75C125,211.11,124.48,212.15,124,213.1Zm50-37.66H134.75a.95.95,0,1,0,0,1.89H174v15.21H148.08c-7.82,0-16.51,1.87-21.92,15.57H72.71a31.7,31.7,0,0,0-30.65-25.39h0a29.46,29.46,0,0,0-12.19,2.64,1,1,0,0,0-.47,1.25,1,1,0,0,0,1.25.48,26.82,26.82,0,0,1,11.44-2.48,29.79,29.79,0,0,1,28.72,23.5H64.48A23,23,0,0,0,42,189.92h0a22.59,22.59,0,0,0-16.05,6.79,24.17,24.17,0,0,0-6.2,10.69H7c-1.11-2.93-5.87-16.14-5-24a17.43,17.43,0,0,1,1.79-5.36H27.54A10,10,0,0,0,37.43,169l2.14-25.42H68a3,3,0,0,1,2.49,1.35L75.94,153a.93.93,0,0,0,1.19.33c.05,0,5.68-2.68,16.4-5a.93.93,0,0,0,.64-.48,1,1,0,0,0,.07-.7c0-.14,0-1.38,2.88-3.92,2.65-2.37,2.38-5.28,2.06-8.65a28.44,28.44,0,0,1,0-7c1-7.11,6.26-24,10.76-31.3a1,1,0,0,0,.14-.49V89.76a1,1,0,0,0-.32-.71.9.9,0,0,0-.73-.23c-.09,0-8.48,1-12.44-1.4-3.64-2.18-5.93-4.72-6.53-6.36a44.22,44.22,0,0,0,7.22-7.43A.95.95,0,0,0,96,72.25s-4.27,2.5-7.19,2.31a12.64,12.64,0,0,1-3.65-.72,9.73,9.73,0,0,0,.66-4.73.94.94,0,0,0-.45-.72,1,1,0,0,0-.84-.07,2.45,2.45,0,0,1-3.35-1.41,2.06,2.06,0,0,1,.18-2.28,2.54,2.54,0,0,1,2.35-.73,2,2,0,0,0,1.86-.36c.36-.3,1.45-1.21,1.07-5.62,0-.42-.11-1.06-.2-1.85-.41-3.64-1.17-10.41-.53-13.88a21.57,21.57,0,0,1,1.64-5.09c4.24,5.46,10.61,9.94,14.3,12.54.72.5,1.33.93,1.8,1.28a12.47,12.47,0,0,1,4.54,5.8.94.94,0,0,0,1.84-.14,5.9,5.9,0,0,0,0-1.27c.25.82.5,1.68.76,2.56,1.19,4.12,2.54,8.8,4.88,11.81a6.22,6.22,0,0,0,6.86,2.25.95.95,0,0,0-.49-1.82,1.4,1.4,0,0,1-1.2-.21,3.48,3.48,0,0,1-1-1.87c.41-.47,1.19-1.36,2.17-2.34a.28.28,0,0,0,.12,0,3.57,3.57,0,0,1,2.74,1.75c.56,1.24.28,2.89-.78,4.64a.72.72,0,0,0,.24,1,.82.82,0,0,0,.37.1.69.69,0,0,0,.6-.34c1.31-2.17,1.61-4.29.86-6a4.51,4.51,0,0,0-2.91-2.37c.41-.37.84-.73,1.28-1.07a2.59,2.59,0,0,1,2.32-.5,1.94,1.94,0,0,1,1.31,1,3.82,3.82,0,0,1-.43,3,1,1,0,0,0,.29,1.31.94.94,0,0,0,1.3-.29,5.74,5.74,0,0,0,.59-4.76,3.79,3.79,0,0,0-2.56-2.15,4.51,4.51,0,0,0-4,.83,33.06,33.06,0,0,0-4,3.71c-.07-.61-.12-1.19-.15-1.65,0-.22,0-.41-.06-.62.77-1.12,4.16-5.66,8-4.63a6.12,6.12,0,0,1,4.14,3.64,7.7,7.7,0,0,1-.52,6.69c-2.73,4.81-5,6.79-8.25,7.29a3.34,3.34,0,0,1-2.95-.82.94.94,0,1,0-1.44,1.22,5.05,5.05,0,0,0,3.74,1.54,6.32,6.32,0,0,0,.94-.07,10.18,10.18,0,0,0,5.68-2.85,42.6,42.6,0,0,0,2.73,6.12l-2.84,2.66a.94.94,0,0,0-.29.69v4.07a1,1,0,0,0,.38.77.94.94,0,0,0,.84.14,14.91,14.91,0,0,1,4-.83,3.7,3.7,0,0,1,.4.9,7.31,7.31,0,0,0,1,2A52.6,52.6,0,0,1,142,110.18a96.86,96.86,0,0,1,1.25,9.91,43.53,43.53,0,0,0,.93,6.62c.2.9.38,1.79.57,2.66.95,4.56,1.78,8.49,3.92,10.63s4.39,6.62,3.5,8.24c-1,1.88-5.19,5.4-9.11,7.68a1,1,0,0,0-.47.79c0,.11-.36,10.92-5.94,14.17a1,1,0,0,0-.43,1.07.94.94,0,0,0,.91.7H174Z"/>
        <path d="M120.25,201.78a.94.94,0,0,0,.54,1.22,1,1,0,0,0,.34.06.94.94,0,0,0,.88-.61c5-13.15,12.73-15,20.38-15h19.83a1,1,0,0,0,0-1.9H142.39C134.46,185.59,125.63,187.52,120.25,201.78Z"/>
        <rect x="30.75" y="114.25" width="42.46" height="7.69" rx="3.39"/>
      </g>
      <path d="M48.43,168.16a3.69,3.69,0,0,1-2.41-1,3.19,3.19,0,0,1-1.2-2.85,4.6,4.6,0,0,1,.82-2.05,3.82,3.82,0,0,1-2.66-.94,4.27,4.27,0,0,1-1.32-3.47,3.18,3.18,0,0,1,1.47-2.47,4.37,4.37,0,0,1,2.28-.52l-.29-.47a2.88,2.88,0,0,1-.3-3.2,2.61,2.61,0,0,1,2.44-1.07,4.43,4.43,0,0,1,2.67,1.15,4.48,4.48,0,0,1,1.14-1.47,3.9,3.9,0,0,1,3.63-.66,3,3,0,0,1,2.1,2.09,3.38,3.38,0,0,1,0,1.81,6.37,6.37,0,0,1,1.58-.1c1.45.09,2.81,1.49,3.54,2.66a3.35,3.35,0,0,1-.9,4.23A8.6,8.6,0,0,1,58.21,161c.09.14.17.28.24.41a5.19,5.19,0,0,1-.22,4.49,3.63,3.63,0,0,1-1,1.34,3,3,0,0,1-2.21.65,3.72,3.72,0,0,1-2.46-1.32,4.77,4.77,0,0,1-.43-.64s-.1.12-.17.18C51.45,166.71,50.14,168.16,48.43,168.16Zm-.24-8.06a.93.93,0,0,1,.9.68,1,1,0,0,1-.46,1.1,4.59,4.59,0,0,0-1.93,2.64,1.29,1.29,0,0,0,.55,1.21c1.22,1,2.08.51,3.35-.88l.3-.33a2.77,2.77,0,0,0,.71-1.52c0-.26.06-.51.1-.77a.94.94,0,0,1,1.87.24q0,.39-.09.75a3.16,3.16,0,0,0,.57,2.17,1.78,1.78,0,0,0,1.17.62,1.11,1.11,0,0,0,.82-.22,1.86,1.86,0,0,0,.46-.66,3.5,3.5,0,0,0,.25-2.88,2.17,2.17,0,0,0-1.14-1,2.17,2.17,0,0,1-1.1-.42.94.94,0,0,1,.8-1.65,5.66,5.66,0,0,1,.82.25,8.73,8.73,0,0,0,3.65-1.07,1.5,1.5,0,0,0,.49-1.78,3.66,3.66,0,0,0-2-1.77,4.61,4.61,0,0,0-2.86.79A6.52,6.52,0,0,1,54,157a.93.93,0,0,1-1.22-.06,1,1,0,0,1-.13-1.22A6.63,6.63,0,0,1,54,154.26c.12-.17.24-.36.39-.59a2.62,2.62,0,0,0,.57-1.95,1.2,1.2,0,0,0-.85-.78,2.05,2.05,0,0,0-1.85.3h0a3.32,3.32,0,0,0-1,2.09,3.62,3.62,0,0,1,.12,1.66.95.95,0,0,1-1.84.11,4.71,4.71,0,0,1-.18-1.5A2.77,2.77,0,0,0,49,153a2.7,2.7,0,0,0-1.82-1,.91.91,0,0,0-.77.22c-.13.19,0,.67.32,1.16l.33.54a4,4,0,0,0,1.37,1.57.94.94,0,0,1-.92,1.64,3.4,3.4,0,0,0-1.86-.38h-.2a2.44,2.44,0,0,0-1.33.25,1.31,1.31,0,0,0-.57,1,2.37,2.37,0,0,0,.71,1.89c.63.57,1.39.5,2.67.32.39-.05.79-.11,1.2-.14Zm3.48-9.58h0Z"/>
      <path d="M51.28,163.32a4.31,4.31,0,0,1-.71,0A5.41,5.41,0,0,1,46.91,161a4.34,4.34,0,0,1-.72-3.45,4.29,4.29,0,0,1,2.84-3c1.27-.4,3.81-.22,5.06,1.15h0c1.31,1.44,2.21,3.84,1.07,5.7A4.53,4.53,0,0,1,51.28,163.32Zm-.87-7.13a2.83,2.83,0,0,0-.82.1A2.38,2.38,0,0,0,48,158a2.43,2.43,0,0,0,.44,1.94,3.53,3.53,0,0,0,2.36,1.49,2.77,2.77,0,0,0,2.72-1.05c.67-1.1-.14-2.66-.86-3.44A3.39,3.39,0,0,0,50.41,156.19Z"/>
    </g>
  </g>
</svg>
