<svg xmlns="http://www.w3.org/2000/svg" width="103.17" height="130.18" viewBox="0 0 103.17 130.18">
  <g id="Calque_2" data-name="Calque 2">
    <g id="D-side-draw">
      <g>
        <path d="M98.92,51.53c-1.74-1.74-2.55-5.6-3.41-9.68-.18-.88-.37-1.78-.57-2.68a41.76,41.76,0,0,1-.88-6.37c-.2-2.32-.44-5.2-1.28-10.08a53.56,53.56,0,0,0-7.51-19,6,6,0,0,1-.75-1.55,4,4,0,0,0-1-1.76c-.28-.23-1.11-.94-5.68.51-3.25.42-18.42,2.47-20.68,4.42C55.18,7,47.07,16.72,45,19.19a2.52,2.52,0,0,0-1.49-.82A4.11,4.11,0,0,0,39.83,20a2.76,2.76,0,0,0-.5,1.33,30,30,0,0,1-4.15,0A63.07,63.07,0,0,1,28,19.86a1.94,1.94,0,0,0-.43-2.27s-4-3.53-5.82-3.28a23.74,23.74,0,0,0-6.1,3l-3.51-.54c-.66-.2-3.65-1.06-4.55-.89a1.63,1.63,0,0,0-1.15.8,2.64,2.64,0,0,0-.78.1A3.23,3.23,0,0,0,3.7,18.68a1.34,1.34,0,0,0-.6.27A10.75,10.75,0,0,0,.78,24.39a4.63,4.63,0,0,0-.73,2.92c.35,1.53,2.38,3.28,3.59,4a3.1,3.1,0,0,0,1.49.58,1,1,0,0,0,.22,0,3.65,3.65,0,0,0,2-1.7,1.36,1.36,0,0,0,.14-1.12,5.73,5.73,0,0,0-1.13-1.55l.24-.34.31.35a6.78,6.78,0,0,0,3.69,1.71c.18,5,1.18,11.52,4.47,15.53.91,1.12,1.64,2.05,2.24,2.83,2.5,3.22,3.17,4.08,6.82,4.08A110.61,110.61,0,0,1,41.5,53.75c1.59.4,2.73.65,3.52.82l-.19.18c-2.52,2.25-3.29,3.84-3.47,4.83a82.3,82.3,0,0,0-16,4.91c-6.48,1.67-7,2.46-7.22,2.72-.07.1-.39.43-.69.76-2.14,2.26-7.14,7.56-6.9,11.8.25,4.55.8,8,2.65,10.25,1,1.17,3.85,4.73,5.74,7.08a6.52,6.52,0,0,0-1,5.25c.19.87,1.11,1.51,2.39,2.4.39.28.81.57,1.23.89,1.1.82,2.17,3.24,2.49,4.1a1,1,0,0,0,.69.6,8.63,8.63,0,0,0,1.59.11,30,30,0,0,0,5.4-.6l4.7,4.84A36.68,36.68,0,0,1,36,121.6a8.21,8.21,0,0,1-2,1.3A9.23,9.23,0,0,0,32.14,124c-.88.79-.9,2.22-.92,3.36a8.31,8.31,0,0,1,0,1,1.19,1.19,0,0,0,.67,1.21,14,14,0,0,0,5,.62c2.7,0,5.58-.31,6.37-1a10.71,10.71,0,0,0,2-3.07C46,124.6,47.14,122.49,48,122c1.62-.9,4.62-2.57,3.12-6.38a9.94,9.94,0,0,0-3.68-4.57l-3.28-7.36a10.64,10.64,0,0,0,2.24-4.45c.26-1.58-1-2.74-2-3.58-.25-.23-.49-.44-.68-.65a8.39,8.39,0,0,1-.62-3.15,95.85,95.85,0,0,0,19.37,2.5,35.09,35.09,0,0,0,4.4-.26,38.38,38.38,0,0,0,19.77-8.82,19,19,0,0,0,6.79-15.17c3.67-2.23,8-5.75,9.3-8.1C104.26,59.24,101.45,54.06,98.92,51.53ZM99,54.62C96.46,56.51,87,62.67,72.36,63.07l-.1-5.45c14.27-1.18,21.85-4.86,24.22-6.22a7.87,7.87,0,0,0,1.11,1.47A13.62,13.62,0,0,1,99,54.62ZM43.2,60.08c0-.11,0-.89,1.38-2.42C47.09,59.23,56,64,70.74,64h.69l.14,7.35h0c-.92,0-1.83,0-2.72-.07C59.25,71,44.83,65.4,43.2,60.08Zm2.88-3.91a6.71,6.71,0,0,0,1-1.19,16,16,0,0,0,3.1.4,4.12,4.12,0,0,0,.73-.05,7.84,7.84,0,0,0,1.72-.87c1.06,1.3,4.2,3.45,13.35,3.45,1.58,0,3.35-.07,5.3-.21l.1,5.39c-14.62.15-23.52-4.51-26.17-6.13C45.49,56.71,45.76,56.45,46.08,56.17ZM60,49.66a.4.4,0,0,0,.15.1,26.29,26.29,0,0,0,9.58,1.72c.48,0,1,0,1.45,0l.1,5.31c-12.87,1-16.72-1.53-17.82-2.78C55.15,52.94,57.46,51.41,60,49.66Zm36,.9c-2.27,1.28-9.82,4.95-23.79,6.11l-.1-5.28c12.81-.85,19.68-4.75,22.11-6.45A26.77,26.77,0,0,0,96,50.56ZM37.29,23.31h.58A21.45,21.45,0,0,0,33.78,35.1a76,76,0,0,0,1.28,15.64c-1.45-.2-3-.38-4.4-.53a45.7,45.7,0,0,1-2.07-13.12A26.37,26.37,0,0,1,32.7,22.85a22.69,22.69,0,0,0,2.33.37C35.82,23.29,36.59,23.31,37.29,23.31Zm-13,26.47a55.59,55.59,0,0,1-2-10.44c-1.06-9.82,2.92-16,4.35-17.85,2,.49,3.66.87,5,1.16a26.94,26.94,0,0,0-4.05,14.46,46.88,46.88,0,0,0,2,13C27.54,49.92,25.64,49.79,24.3,49.78Zm-16.54-33a14.44,14.44,0,0,1,3.33.65l-.34.31a18,18,0,0,0-3-.95ZM6,17.65a1.7,1.7,0,0,1,.48-.06.52.52,0,0,0,.15.07.47.47,0,0,0,.31-.05,13.89,13.89,0,0,1,3.09.85l-.66.61L8.59,19a33.76,33.76,0,0,0-3.8-.37A2.11,2.11,0,0,1,6,17.65Zm-2.23,2c.34-.22,1.91-.14,4.7.24l-.5.46h0c-1.12-.05-3.78-.1-4.42.4A9.26,9.26,0,0,0,2.38,22,8.25,8.25,0,0,1,3.72,19.66Zm3.89,7.23-.45-.52.9-1.29a.48.48,0,0,0-.12-.66.47.47,0,0,0-.66.12L6.54,25.6a12.59,12.59,0,0,1-.9-1.3.47.47,0,1,0-.81.49A15.51,15.51,0,0,0,6,26.41l-.45.65-2.37-.27a.47.47,0,1,0-.11.93l2.48.3A5.48,5.48,0,0,1,6.61,29.4a.53.53,0,0,1-.1.34A2.72,2.72,0,0,1,5.13,31h0C4.48,31,1.34,28.72,1,27.1S3.49,22,4.06,21.51A9.92,9.92,0,0,1,7,21.28a.48.48,0,0,0,0,.6.47.47,0,0,0,.35.15.45.45,0,0,0,.32-.13l4.53-4.2,2.34.36c-1.88,1.4-3.45,3.07-3.71,4.78a39.24,39.24,0,0,0-.24,5.42A5.77,5.77,0,0,1,7.61,26.89ZM18.8,46.43c-.61-.79-1.35-1.73-2.28-2.87-4.44-5.43-4.37-16.88-3.84-20.44.43-2.9,8.08-6.72,9.29-6.93.65,0,3.16,1.77,4.33,2.78a.78.78,0,0,1-.13.33s0,.07-.05.1c-2.26-.55-4-1-4-1a1,1,0,0,0-.48,1.84s1.77.46,4.06,1c-1.7,2.29-5.34,8.46-4.29,18.19a57.22,57.22,0,0,0,1.91,10.32C21.33,49.69,20.94,49.18,18.8,46.43ZM42,51.91c-1.39-.34-3.54-.7-5.9-1a74.9,74.9,0,0,1-1.33-15.73,20.68,20.68,0,0,1,4.39-11.88l.76-.06a3.21,3.21,0,0,0,.19.31,2,2,0,0,1,.17,2.38,52.62,52.62,0,0,0-2,7A1,1,0,0,0,39,34.07l.2,0a1,1,0,0,0,.93-.75A50.41,50.41,0,0,1,42,26.64a3.8,3.8,0,0,0-.31-4.12,8,8,0,0,1-.41-.72.77.77,0,0,1,.13-.71,2.23,2.23,0,0,1,2-.84c1.17.29,3.7,6.62,4.11,8.35a.94.94,0,0,0,1.87-.15,30.84,30.84,0,0,0-3.15-7.73c3.6-4.36,10.52-12.56,12.17-14,1.35-1.16,12.38-3,19.78-4a.76.76,0,0,0,.16,0,14.91,14.91,0,0,1,4-.83,3.7,3.7,0,0,1,.4.9,7.31,7.31,0,0,0,1,2,52.39,52.39,0,0,1,7.15,18.22c.83,4.79,1.07,7.63,1.26,9.91a42.21,42.21,0,0,0,.92,6.62c.2.9.39,1.79.57,2.66q.18.85.36,1.68c-2,1.43-8.8,5.63-21.91,6.52L72,43a.49.49,0,0,0-.48-.46.46.46,0,0,0-.46.48l.13,7.45A26.06,26.06,0,0,1,61,49c7.51-5.13,16.61-11.71,17.69-12.84a.95.95,0,0,0-1.37-1.31c-2.36,2.48-25.15,18-26.62,18.58A13.41,13.41,0,0,1,46.91,53h-.06l0,0S45.62,52.82,42,51.91Zm-16.3,56.62a11.84,11.84,0,0,0-2.9-4.41c-.44-.33-.88-.63-1.29-.92a7.35,7.35,0,0,1-1.64-1.33,4.43,4.43,0,0,1,.4-3.18l.75.93a.48.48,0,0,0-.43.42.47.47,0,0,0,.43.51c.07,0,.38,0,.9,0a24.66,24.66,0,0,0,9.22-2,12.58,12.58,0,0,0,2.35,3.54c1.15,1.21,2.73,3.21,3.62,4.36a17.55,17.55,0,0,1-1.73.57C29.78,108.58,26.74,108.6,25.65,108.53Zm8.21-11.26c.07.82.35,1.51,1.74,3.14,1.06,1.24,3.2,3.84,4,4.83a13.43,13.43,0,0,1-1.65.91c-.85-1.11-2.58-3.31-3.85-4.65A11.56,11.56,0,0,1,32,98.24C32.58,98,33.21,97.63,33.86,97.27Zm2,11.65a16.21,16.21,0,0,0,6.93-3.72l.3.65c-2.3,2.46-6.57,3.85-8.31,4.33l-.77-.79C34.55,109.25,35.17,109.1,35.82,108.92Zm-.33,2,.61-.19,1,1.69-.17,0Zm2.65,1.33L37,110.45l.75-.28,1.16,1.9C38.68,112.15,38.41,112.22,38.14,112.28Zm1.7-.53-1.18-1.94.57-.26,1.18,2C40.23,111.59,40,111.67,39.84,111.75Zm1.41-.69-1.17-1.92.67-.37,1.15,1.88C41.7,110.79,41.48,110.92,41.25,111.06Zm1.41-1-1.1-1.8.68-.47,1.06,1.73C43.11,109.71,42.89,109.9,42.66,110.08ZM44,108.85l-1-1.64c.17-.14.33-.28.48-.43l.79,1.77ZM33.09,128c0-.2,0-.4,0-.61,0-.61,0-1.74.3-2a10.21,10.21,0,0,1,1.44-.86l.51-.28c.64.49,1.54,1.61,1.61,4A19.34,19.34,0,0,1,33.09,128Zm13.14-15.5a8,8,0,0,1,3.13,3.79c.76,2-.09,2.82-2.28,4-1.35.75-2.45,2.86-3.53,4.89a14.58,14.58,0,0,1-1.46,2.48,14.09,14.09,0,0,1-4.18.53,6.05,6.05,0,0,0-1.69-4.47,4.22,4.22,0,0,0,1.3-1.14c.68-1,.82-5.66.85-8.33a1,1,0,0,0-.27-.67l-.33-.34a11.93,11.93,0,0,0,6.9-3.81l1.16,2.59A.9.9,0,0,0,46.23,112.53ZM42.35,96.3c.23.25.51.51.81.78.65.58,1.46,1.31,1.37,1.86a9.66,9.66,0,0,1-2.12,3.93l-.09.1a12.15,12.15,0,0,1-1.91,1.74c-.78-.94-3-3.64-4.09-4.91-1.35-1.59-1.48-2.07-1.52-2.62a.47.47,0,0,0-.19-.33,29.84,29.84,0,0,0,4.87-3.65h0a.4.4,0,0,0,.15-.14l.71-.66a.47.47,0,1,0-.66-.67l-.32.28-.67-1.23c.79.22,1.63.43,2.51.64C41.27,92.86,41.51,95.38,42.35,96.3ZM85.41,83.88a37.23,37.23,0,0,1-18.77,8.35c-9.82,1.31-29.31-3.12-33.43-5.3-1-.52-1.67-.93-2.15-1.25a1.31,1.31,0,0,0,.62-.49,1.15,1.15,0,0,0,.09-1.08c-.25-.58-1-1.84-1.07-2a.94.94,0,1,0-1.62,1l.55,1a5,5,0,0,1-.54,0,.92.92,0,0,0-.73.35,1.08,1.08,0,0,0-.21.89c.13.62.72,1.45,4.18,3.28a30.14,30.14,0,0,0,5.09,1.83l1.23,2.24A28.06,28.06,0,0,1,32.21,97a.46.46,0,0,0-.06-.3L23.59,83.52a.47.47,0,1,0-.79.52l8.42,13-.23.55a25.31,25.31,0,0,1-8,2,.94.94,0,0,0-.2-.7l-1.95-2.43c-2.26-2.82-5.17-6.44-6.19-7.65-1.52-1.82-2-5-2.22-9.14-.19-3.42,4.59-8.48,6.39-10.39.45-.48.68-.73.82-.91a34.44,34.44,0,0,1,6.28-2.06.58.58,0,0,0,.17-.06c.05,0,5.42-2.55,15.63-4.8,3,6.37,18.08,11.48,27.07,11.77,1.86.06,3.78.11,5.72.11,5.95,0,12-.46,17.07-2.36A17.17,17.17,0,0,1,85.41,83.88Zm15.68-22.77c-1,1.87-5.16,5.36-9.06,7.65-5.47,2.41-12.69,2.75-19.53,2.65,0,0,0,0,0,0L72.37,64a49.4,49.4,0,0,0,27.19-8.61C100.88,57.56,101.71,60,101.09,61.11Z"/>
        <path d="M29.7,78.47c-.42.06-2.11-1.24-3.12-2-1.9-1.45-2.73-2-3.33-1.92a.69.69,0,0,0-.46.3c-.5.79.64,2,2.68,3.93.48.46,1.06,1,1.46,1.46-.54-.25-1.23-.61-1.73-.88-.71-.38-1.39-.73-1.84-.91s-.82,0-1,.15-.48.64,1.11,2.81a.5.5,0,0,0,.38.19.42.42,0,0,0,.28-.1.47.47,0,0,0,.1-.66,12.12,12.12,0,0,1-.86-1.33c.38.18.86.43,1.35.69,2.13,1.13,2.92,1.49,3.38,1.11a.64.64,0,0,0,.17-.72,8.93,8.93,0,0,0-2.18-2.49,24.27,24.27,0,0,1-2.31-2.44A25.49,25.49,0,0,1,26,77.22c2.13,1.62,3.36,2.52,4.11,2.08a.48.48,0,0,0,.2-.65A.43.43,0,0,0,29.7,78.47Z"/>
        <path d="M68.43,74.74a2.71,2.71,0,0,1-1.23.56c-.69.2-1.29.37-1.4.9a1.06,1.06,0,0,0,.45,1l.22.19.6.53-.45-.05a7.16,7.16,0,0,1-2.69-1,2.23,2.23,0,0,0-1.32-.47.64.64,0,0,0-.53.38c-.16.36,0,1,.52,1.77a21.42,21.42,0,0,1-3.13.74c-3.17.58-25.45-1.9-26.59-2.1a.47.47,0,0,0-.56.31.48.48,0,0,0,.3.6c.12,0,18.86,2.22,25.3,2.22a10.41,10.41,0,0,0,1.72-.1c1.64-.3,3.67-.74,4-1.17a.48.48,0,0,0,0-.57,7.18,7.18,0,0,1-.58-1l.36.2a8.11,8.11,0,0,0,3,1.14c1,.13,1.58.12,1.79-.35s-.27-1-1.2-1.78l-.22-.2a.12.12,0,0,1-.05,0,5.35,5.35,0,0,1,.64-.2,3.14,3.14,0,0,0,1.75-.93.48.48,0,0,0-.13-.66A.47.47,0,0,0,68.43,74.74Z"/>
        <circle cx="44.37" cy="113.53" r="0.75"/>
        <path d="M40.3,114.2a.75.75,0,0,0,.91,1.18.75.75,0,0,0,.14-1A.74.74,0,0,0,40.3,114.2Z"/>
        <path d="M42.68,117.06a.75.75,0,0,0,.91,1.19.75.75,0,1,0-.91-1.19Z"/>
        <path d="M48.08,116.63a.75.75,0,0,0,.14-1,.75.75,0,0,0-1.18.92A.73.73,0,0,0,48.08,116.63Z"/>
        <path d="M47.15,120a.76.76,0,0,0,.13-1,.74.74,0,0,0-1.05-.13.76.76,0,0,0-.13,1A.74.74,0,0,0,47.15,120Z"/>
        <path d="M42.06,120.84a.76.76,0,0,0-.13,1,.74.74,0,0,0,1,.13.75.75,0,0,0,.13-1A.76.76,0,0,0,42.06,120.84Z"/>
        <path d="M40.15,119.11a.75.75,0,0,0-1-.13.74.74,0,0,0-.13,1,.73.73,0,0,0,1,.13A.75.75,0,0,0,40.15,119.11Z"/>
        <path d="M38.37,122.89a.75.75,0,0,0,.91,1.18.75.75,0,0,0,.14-1A.74.74,0,0,0,38.37,122.89Z"/>
        <path d="M40.3,126a.75.75,0,0,0,.91,1.19A.75.75,0,0,0,40.3,126Z"/>
        <path d="M83.5,21.11a25.35,25.35,0,0,1-1.87,7.63.47.47,0,0,0,.25.62.58.58,0,0,0,.18,0,.47.47,0,0,0,.44-.3,26,26,0,0,0,2-7.94c.73-11.92-4.73-16.24-5-16.42a.46.46,0,0,0-.66.09.47.47,0,0,0,.08.66C79,5.53,84.2,9.73,83.5,21.11Z"/>
      </g>
    </g>
  </g>
</svg>
