<svg xmlns="http://www.w3.org/2000/svg" width="67.97" height="95.64" viewBox="0 0 67.97 95.64">
  <g id="Calque_2" data-name="Calque 2">
    <g id="M-arm-draw">
      <path d="M67.73,24.32a41.71,41.71,0,0,0-2.28-11C62.72,5.73,58,1.22,51.94.26,37.36-2,30.36,11.82,30.29,12a1.18,1.18,0,0,0-.07.2c0,.21-5,21-7.37,25.12-1,1.79-2.2,4.13-3.34,6.38a54.19,54.19,0,0,1-3.35,6.18c-.74.49-11.52,9.63-12,14.65-.08.78-.2,1.55-.32,2.32-.4,2.64-.81,5.34.38,7.82C2.8,76.51.08,80.29,0,81.23c0,.13,0,.39,0,.72,0,0,0,0,0,.07,0,2,.46,6.75,2,8.61a.52.52,0,0,0,.2.14,7.2,7.2,0,0,0,.13,1c.4,1.79,2.81,2.08,3.5,2.12a23.9,23.9,0,0,0,2,1.65,1,1,0,0,0,.45.09A11.57,11.57,0,0,0,12,94.44a.42.42,0,0,0,.15-.11c.17-.18,1.69-1.8,2.06-2.33a2.19,2.19,0,0,0,0-2.62A2.92,2.92,0,0,0,12,88.31a36.48,36.48,0,0,0,4-4.92,17.49,17.49,0,0,0,4,1.52c.27,0,.71.16,1.22.29a22,22,0,0,0,6,1,13.74,13.74,0,0,0,8.24-2.65c5-3.64,5.74-5.68,6.43-7.65a13.68,13.68,0,0,1,.69-1.69A173.25,173.25,0,0,1,54.8,55.88C58.31,51.61,64.63,41,66.29,36,67.89,31.25,68.28,28.07,67.73,24.32ZM17.21,51.41c.52-.34,1.17-1.42,2.43-3.85a.5.5,0,0,0,.38,0,24.61,24.61,0,0,1,4.08-.93,1.75,1.75,0,0,1,.95,0c.37.19.53.74.64,1.25l.81,3.44c.12.56.52,2.25,1.87,2.48a2.65,2.65,0,0,0,1.57-.31,4.11,4.11,0,0,1,.74-.26,1.49,1.49,0,0,1,1.52.78,4.73,4.73,0,0,1,.23.75,2.63,2.63,0,0,0,.69,1.48,2.77,2.77,0,0,0,2.07.5,6.16,6.16,0,0,0,2.16-.36l.46-.23a2.69,2.69,0,0,1,.7-.28,1.62,1.62,0,0,1,1.38.57,6.73,6.73,0,0,1,.84,1.14c.08.14.17.28.26.41a11.4,11.4,0,0,0,6.5,4.68c-1,1.53-2.06,3.07-3,4.51A5.77,5.77,0,0,1,39,63.63l-.15-.43A3.16,3.16,0,0,0,37.3,61a3.14,3.14,0,0,0-2.81.64c-.71.42-1.38.81-2,.6s-.87-1-1.05-1.69a3.55,3.55,0,0,0-1.41-2.42,3.38,3.38,0,0,0-1.32-.35A7,7,0,0,0,27,57.7a9.13,9.13,0,0,0-1.09.24,7.54,7.54,0,0,1-.82.2,1.81,1.81,0,0,1-1.42-.28,2.37,2.37,0,0,1-.48-1.47,3.64,3.64,0,0,0-.62-1.91,2.89,2.89,0,0,0-3-.67,10.24,10.24,0,0,0-1.1.39,6.54,6.54,0,0,1-1.41.44,3.19,3.19,0,0,1-2.64-.82A36.41,36.41,0,0,1,17.21,51.41Zm-3.48,3.05a4.19,4.19,0,0,0,3.47,1.11,7.73,7.73,0,0,0,1.61-.5,8.6,8.6,0,0,1,1-.35,2,2,0,0,1,2,.35,2.81,2.81,0,0,1,.41,1.43,3.18,3.18,0,0,0,.77,2,2.51,2.51,0,0,0,2.22.52,9.24,9.24,0,0,0,.91-.21,6,6,0,0,1,1-.21,6.27,6.27,0,0,1,1.54,0,2.56,2.56,0,0,1,1,.23,2.86,2.86,0,0,1,1,1.85A3.1,3.1,0,0,0,32.2,63.1,3.25,3.25,0,0,0,35,62.43c.75-.44,1.39-.83,2-.58s.77.91,1,1.64c0,.16.1.31.16.46A6.66,6.66,0,0,0,43.9,68.2c-.77,1.21-1.46,2.31-2,3.22a7.47,7.47,0,0,1-1.78-.15,3.21,3.21,0,0,1-2-1.26,5,5,0,0,1-.5-1.17,4.72,4.72,0,0,0-.89-1.74c-1.16-1.26-3.17-1-4.65-.25l-.4.22a6,6,0,0,1-1,.48,1.3,1.3,0,0,1-1.16-.08c-.4-.29-.49-.93-.6-1.63-.17-1.17-.64-1.89-1.37-2.12a2.48,2.48,0,0,0-1.94.38l-.46.23a2.82,2.82,0,0,1-3.53-1.41,5.84,5.84,0,0,1-.36-2l0-.44a1.49,1.49,0,0,0-.23-.73,1.35,1.35,0,0,0-1-.49,11.35,11.35,0,0,0-3.86.27,15.12,15.12,0,0,1-2.69.34,2.55,2.55,0,0,1-.92-.14,1.82,1.82,0,0,1-1-1.33,5.58,5.58,0,0,1-.05-1.78C12.27,55.88,13,55.13,13.73,54.46ZM1,83.4c.35.4.79.88,1.27,1.37,0,.62-.15,2.49-.16,4.22A20.62,20.62,0,0,1,1,83.4Zm2.21,8.18a32.2,32.2,0,0,1-.05-5.93c.4.37.82.74,1.24,1.06A44.27,44.27,0,0,0,5,92.84C4.29,92.68,3.39,92.34,3.22,91.58Zm10.22-1.73c.48.84.28,1.26,0,1.61s-1.42,1.63-1.92,2.16A15.09,15.09,0,0,1,8.3,94.74C8,94.55,6.74,93.48,6,92.79a52.92,52.92,0,0,1-.61-5.43,4.49,4.49,0,0,0,.42.24.41.41,0,0,0,.21.05.46.46,0,0,0,.42-.25.46.46,0,0,0-.2-.63C4.12,85.7,1.46,82.49.94,81.85a4.54,4.54,0,0,1,0-.55C1,80.78,2.8,78.11,4.7,75.52a9,9,0,0,0,1.94,2.06A56.12,56.12,0,0,0,15.17,83a45.51,45.51,0,0,1-4.51,5.46h0l-.26.28a3.34,3.34,0,0,0-2,0,.45.45,0,0,0-.32.57.46.46,0,0,0,.57.33,3.37,3.37,0,0,1,1-.1c-.38.4-.74.79-1.08,1.13a.47.47,0,0,0,0,.67.5.5,0,0,0,.32.13.45.45,0,0,0,.34-.15l1-1a8,8,0,0,1,0,1.75.48.48,0,0,0,.41.52h.06a.47.47,0,0,0,.47-.41A7,7,0,0,0,11,89.42l.19-.21C11.92,89.21,13.15,89.34,13.44,89.85ZM40,75.22c-.65,1.86-1.21,3.46-5.76,6.75-4.83,3.51-9.89,2.14-12.62,1.41-.58-.15-1-.28-1.42-.34a17.56,17.56,0,0,1-3.91-1.59A54.86,54.86,0,0,1,7.81,76.1c-3.15-2.47-2.68-5.5-2.15-9,.13-.79.25-1.6.33-2.41.19-1.78,2.24-4.49,4.55-7a5.23,5.23,0,0,0,.11,1,2.79,2.79,0,0,0,1.54,2,3.31,3.31,0,0,0,1.25.21,17.3,17.3,0,0,0,2.89-.36,10.81,10.81,0,0,1,3.55-.27c.26,0,.32.1.34.12a1.08,1.08,0,0,1,.05.27l0,.42a6.87,6.87,0,0,0,.44,2.26,3.74,3.74,0,0,0,4.76,1.9c.17-.07.34-.16.52-.25a1.8,1.8,0,0,1,1.22-.33c.46.15.65.82.75,1.46a3,3,0,0,0,1,2.16,2.22,2.22,0,0,0,2,.22,7.13,7.13,0,0,0,1.18-.56,3.47,3.47,0,0,1,.37-.21c1.12-.6,2.7-.83,3.52.06a3.75,3.75,0,0,1,.69,1.4,5.88,5.88,0,0,0,.61,1.39,4.14,4.14,0,0,0,2.61,1.66,7.73,7.73,0,0,0,1.43.16c-.22.38-.41.72-.53,1A15.34,15.34,0,0,0,40,75.22ZM64.5,35.44C63.05,39.8,57,50.23,53.34,54.68,52,56.36,50,59.07,48.05,61.94a10.5,10.5,0,0,1-6.27-4.38l-.26-.4a7.45,7.45,0,0,0-1-1.31A2.59,2.59,0,0,0,38.34,55a3.44,3.44,0,0,0-1,.38l-.39.19a5.34,5.34,0,0,1-1.84.3,2,2,0,0,1-1.39-.26,1.92,1.92,0,0,1-.42-1,4.08,4.08,0,0,0-.29-.94,2.42,2.42,0,0,0-2.53-1.3,4.25,4.25,0,0,0-.95.32,2.05,2.05,0,0,1-1,.25c-.5-.09-.86-.67-1.12-1.77l-.8-3.44a2.61,2.61,0,0,0-1.13-1.87A2.41,2.41,0,0,0,24,45.74a25,25,0,0,0-3.83.86l1.06-2.09c1.12-2.23,2.29-4.55,3.29-6.29,2.45-4.29,7.1-23.67,7.54-25.52.59-1.12,7-12.57,19.61-10.58,13.13,2.06,14.2,22.13,14.21,22.33,0,0,0,.07,0,.1C66.38,28,66,30.89,64.5,35.44Z"/>
    </g>
  </g>
</svg>
