<svg xmlns="http://www.w3.org/2000/svg" width="126.45" height="186.4" viewBox="0 0 126.45 186.4">
  <g id="Calque_2" data-name="Calque 2">
    <g id="M-middle-draw">
      <g>
        <path d="M54.18,62.37a.46.46,0,0,0-.65,0,9.78,9.78,0,0,1-2.47,1.4,10.22,10.22,0,0,0,.36-4.07c-.26-2.85-1.34-5.09-2.41-5S47.26,57.15,47.52,60s1.33,5.09,2.41,5H50a10,10,0,0,0,4.11-2A.47.47,0,0,0,54.18,62.37Z"/>
        <path d="M48.53,52.72a3,3,0,0,1,3.91,1.06c1.36,1.84,2.88,4.47,3.19,4.87s.86.2.61-1.24-2.31-5.25-4.54-6.51a4.25,4.25,0,0,0-5.32.48c-.36.38.86,3.1,1.27,3.08S47.85,53.1,48.53,52.72Z"/>
        <ellipse cx="57.77" cy="69.03" rx="4.51" ry="4.5"/>
        <path d="M122.76,73.42a18.47,18.47,0,0,1-5.66,0,4.1,4.1,0,0,1-2.12-1c2.32-.1,6.36-.7,8.14-3.63A.94.94,0,0,0,122,67.35c-.09,0-2.28.66-5.37-1.15-2-1.18.18-5.71,2.32-10.09.68-1.38,1.38-2.82,2-4.23,2.62-6,6.2-14.22,5.34-22.2a20.82,20.82,0,0,0-5.91-12.26c-.2-4.19,5.44-8,5.5-8.07a1,1,0,0,0,.38-1,.93.93,0,0,0-.87-.68c-4-.13-7.33,2.42-9.15,4.28-.86-7.51-6-10.22-6.27-10.35a1,1,0,0,0-1.25.39.94.94,0,0,0,.35,1.26c1.08.63,1.24,3.76,1,6.31L100.38,4.4C89.14-1.52,72.54-.87,62,2.83,53.16,5.91,32.86,15.67,34.53,39.72c.2,2.8.66,9.31,5.19,15.15,0,.35.08.69.11,1,.09.77.16,1.38.19,1.79.24,2.69-.18,3.86-.4,4a.31.31,0,0,1-.14,0,4.38,4.38,0,0,0-4.24,1.29,3.79,3.79,0,0,0-.52,4.21,4.11,4.11,0,0,0,4.53,2.75,6.29,6.29,0,0,1-.88,3.32,1,1,0,0,0-.16.73.92.92,0,0,0,.43.62,12.06,12.06,0,0,0,5.3,1.35c2.3.15,5.06-1,6.73-1.76-.73,5.06-5.51,7.4-5.73,7.51a.94.94,0,0,0-.53,1C44.79,85,48.16,88,51.62,89c3.88,1.1,9.46,1.11,11.71,1v5.73c-1.4.85-5.12,3.31-5.71,5.8-1.78,7.41-3.83,17.19-4.78,22.72a11.47,11.47,0,0,0-8.6-3.48,19.89,19.89,0,0,0-7.18,1.09,11.31,11.31,0,0,0-6.7,6A100.17,100.17,0,0,0,23.91,146c-2.77,10.37-4.15,18.83-4.15,18.88-.08.39-.63,3.32.55,5.1-.45.33-1.06.76-1.78,1.25l-2.14,1.39c-1.07.68-2.27,1.38-3.53,2l-3.28,1.52a1.82,1.82,0,0,0-.23.15,21.67,21.67,0,0,1-3.82,1.23C.31,178.7-.19,182,.05,185.44a1,1,0,0,0,1,.95H32.15a1,1,0,0,0,.46-.11c.15-.08,3.69-1.93,2.72-6.94L34.49,175s0,0,0-.06a37,37,0,0,0,4.1-4c.74-.8,1.45-1.56,2-2.08l1.35-1.25a54.49,54.49,0,0,0,4.77-4.75c1.26,2.91,4,8.82,6.44,11.17a42.73,42.73,0,0,0,30.23,12.26c9.54,0,21.66-2.51,25.2-14.43,2.14-7.2,3.36-13.6-1.8-24.86-4.55-9.92-4.53-11.23-4.48-14.39,0-.38,0-.8,0-1.25,0-4.49-3.12-26.45-6.44-33.27-3.09-6.36-6.63-9.55-10.74-9.76V86.06l2.72-2.73c5.31,7.85,11.51,8.91,13.7,9h.58c4.21,0,4.64-2.52,4.65-2.63a.94.94,0,0,0-.23-.77.9.9,0,0,0-.75-.3,5.24,5.24,0,0,1-4.42-2.4,4.91,4.91,0,0,1-.63-2,11.33,11.33,0,0,0,3,1.41,13.47,13.47,0,0,0,3.63.54,7.79,7.79,0,0,0,6.76-3.29.94.94,0,0,0-.79-1.42,7.57,7.57,0,0,1-3.42-.77c.64.06,1.28.1,1.93.1a20.33,20.33,0,0,0,5.8-.82,9.42,9.42,0,0,0,6.19-5.34,1,1,0,0,0-.18-.93A.93.93,0,0,0,122.76,73.42Zm-100.6,98q2.73,1.46,4.85,2.51a10.16,10.16,0,0,0-1.7,2.9l-4.46-4.67,1.14-.83Zm.42,12.94L18,174.08l1.16-.75,5.6,5.85a12.27,12.27,0,0,0,.58,5.17Zm-15,0,.16-5.22c.49-.15,1-.32,1.47-.5l.88,5.72H7.57Zm3.58-6.52c.54-.24,1.07-.49,1.6-.76l1.94,7.28H12.15Zm5.08-2.67,4.11,9.18H16.81l-2.2-8.25C15.16,175.79,15.7,175.47,16.23,175.16ZM5.66,179.67l-.14,4.68H2C2,181.78,2.71,180.37,5.66,179.67Zm27.66.07c.56,2.92-.93,4.24-1.46,4.61H27.49c-2-5.47.46-8.57,1.44-9.52A11.78,11.78,0,0,0,32.2,176h.11a1.28,1.28,0,0,0,.27-.05ZM94.15,98.93c3.15,6.47,6.26,28.19,6.26,32.45,0,.44,0,.84,0,1.22,0,3.46-.08,4.9,4.65,15.2a40.32,40.32,0,0,1,2.85,8.26c-.37.32-8.42,7.22-18,6.65-9.33-.56-12.29-5.3-16.77-12.47l-.59-1a.94.94,0,0,0-1.29-.3,1,1,0,0,0-.3,1.3l.59.94c4.61,7.39,8,12.73,18.25,13.36l1.27,0c8.12,0,14.83-4.6,17.19-6.44.67,5-.26,8.92-1.52,13.16-2.57,8.69-10.45,13.09-23.4,13.09a40.86,40.86,0,0,1-28.92-11.74C52,170.34,49,163.49,48,161.24a100.85,100.85,0,0,0,8.77-7.66,1,1,0,0,0,.05-1.33.94.94,0,0,0-1.33,0c-2.09,1.95-4.35,4-6.08,5.5l3.94-8a.94.94,0,1,0-1.68-.83l-3.64,7.42c-.06-2.33-.37-4.8-1.2-5.84a.94.94,0,1,0-1.46,1.18c.9,1.13,1,7.41.55,9-.27,1-3.54,4-5.3,5.63l-1.37,1.28c-.59.56-1.32,1.34-2.08,2.17-1.31,1.41-4,4.36-4.87,4.4a12.61,12.61,0,0,1-2.91-1.1,1,1,0,0,0-.65-.31c-2.13-1-4.58-2.33-5.71-2.93l-.45-.23a1,1,0,0,0-.5-.32c-.82-.7-.71-2.89-.49-3.95,0-.09,1.37-8.46,4.11-18.73A98.7,98.7,0,0,1,32,128.75a9.44,9.44,0,0,1,5.64-5,18.33,18.33,0,0,1,6.6-1A9.46,9.46,0,0,1,52.6,127a.93.93,0,0,0,1,.46.92.92,0,0,0,.76-.78C55,122,57.41,110.48,59.44,102c.38-1.59,3.45-3.83,5.29-4.88l0,0h0c8.41-5.35,18.79-6.8,19.47-6.89C86.62,90.08,90.2,90.82,94.15,98.93ZM83.5,85a.92.92,0,0,0-.28.66v2.81a55.69,55.69,0,0,0-18,6.18V89.09a1,1,0,0,0-.29-.68.92.92,0,0,0-.7-.26c-.07,0-7.53.35-12.08-1a10,10,0,0,1-5.67-4.27c1.81-1.08,6.33-4.39,6.17-10.44a.93.93,0,0,0-.48-.79,1,1,0,0,0-.94,0S47,74.19,44.06,74a12.9,12.9,0,0,1-3.64-.72,9.6,9.6,0,0,0,.66-4.7.95.95,0,0,0-1.29-.78,2.44,2.44,0,0,1-3.33-1.4,2,2,0,0,1,.18-2.26A2.55,2.55,0,0,1,39,63.42a2,2,0,0,0,1.85-.35c.36-.3,1.44-1.2,1.06-5.59,0-.41-.1-1-.19-1.83a91.92,91.92,0,0,1-.77-10.82,12.39,12.39,0,0,0,4.25,3.91.93.93,0,0,0,.46.12.94.94,0,0,0,.94-1,24.07,24.07,0,0,1,1.87-10.5c1,4.52,4.14,15.56,12.7,20.2a1,1,0,0,0,.44.11.94.94,0,0,0,.74-1.53,16.45,16.45,0,0,1-2.85-8.31,29.76,29.76,0,0,1,5.84,15.55,1,1,0,0,0,.79.85h.15a.94.94,0,0,0,.86-.57A21.72,21.72,0,0,0,68,61a25.56,25.56,0,0,1,2.23,5.2c.63,2,1.65,3.24,3,3.73a3.93,3.93,0,0,0,1.27.21,5.25,5.25,0,0,0,2.69-.81.94.94,0,0,0-.69-1.7,2.08,2.08,0,0,1-1.41,0,.58.58,0,0,1-.1-.12c.41-.48,1.18-1.34,2.13-2.29a.28.28,0,0,0,.13,0A3.51,3.51,0,0,1,80,67c.56,1.23.28,2.87-.77,4.61a.7.7,0,0,0,.23,1,.71.71,0,0,0,.37.1.69.69,0,0,0,.6-.34c1.3-2.15,1.61-4.25.85-5.92A4.45,4.45,0,0,0,78.4,64c.41-.37.84-.73,1.27-1.06a2.59,2.59,0,0,1,2.32-.5,2,2,0,0,1,1.3,1,3.82,3.82,0,0,1-.43,3,.94.94,0,0,0,1.58,1A5.61,5.61,0,0,0,85,62.8a3.72,3.72,0,0,0-2.54-2.13,4.48,4.48,0,0,0-4,.82,33.06,33.06,0,0,0-4,3.71c0-.27,0-.53-.07-.81l-.06-.86c0-.22,0-.41-.06-.61.77-1.12,4.15-5.62,7.92-4.6a6.11,6.11,0,0,1,4.13,3.61,7.62,7.62,0,0,1-.52,6.64c-2.72,4.78-4.94,6.74-8.22,7.24A3.3,3.3,0,0,1,74.74,75a1,1,0,0,0-1.33-.1.93.93,0,0,0-.1,1.32A5,5,0,0,0,77,77.74a6,6,0,0,0,.93-.07,10.16,10.16,0,0,0,5.67-2.83,40.68,40.68,0,0,0,3.16,6.87Zm33.61-6.82a18,18,0,0,1-9.53.2,10.05,10.05,0,0,1-1.12-4.81.94.94,0,0,0-.89-1,1,1,0,0,0-1,.89,11.61,11.61,0,0,0,1.55,6.17h0a7.51,7.51,0,0,0,.93,1.21,7.68,7.68,0,0,0,4.23,2.29c-1.24.87-3.46,1.7-7,.69a9.8,9.8,0,0,1-3.57-2h0a25.58,25.58,0,0,1,.79-4.87.94.94,0,0,0-1.81-.5c-.21.76-2,7.47.11,10.76a6.84,6.84,0,0,0,4,3,5.72,5.72,0,0,1-2.17.21c-2.57-.13-11.35-1.76-16.56-17.21a30.25,30.25,0,0,0,2.48-3.76,9.53,9.53,0,0,0,.62-8.29,8,8,0,0,0-5.38-4.7c-3.77-1-7,1.73-8.72,3.75a19.75,19.75,0,0,0-.48-2.45.94.94,0,1,0-1.8.52,32,32,0,0,1,.78,5.35l.06.85a16,16,0,0,0,.4,3.06,5.26,5.26,0,0,1-1-1.93c-1.38-4.33-2.78-6.34-3.46-7.13a19.11,19.11,0,0,0,.25-4.06.93.93,0,0,0-1-.89,1,1,0,0,0-.89,1,17.41,17.41,0,0,1-.35,4.34,30,30,0,0,0-7.07-14,21.82,21.82,0,0,1,.36-2.52A.94.94,0,0,0,58,42a20.64,20.64,0,0,0-.44,3.26s0,0,0,0a19.6,19.6,0,0,0,1.28,8.34C51.72,47.15,50,35.25,50,35.11a.92.92,0,0,0-.12-.34,16.38,16.38,0,0,1,2.69-3.22.94.94,0,1,0-1.28-1.38c-5.65,5.21-6.51,12.54-6.58,16-5-4-4.94-11.76-4.94-11.84a.94.94,0,0,0-.93-.95,1,1,0,0,0-.95.92,20.91,20.91,0,0,0,1.45,7.49,41.65,41.65,0,0,0,0,9.07A27.11,27.11,0,0,1,36.4,39.59C34.82,16.83,54.19,7.54,62.59,4.6,72.78,1,88.74.39,99.51,6.06l10.94,5.76a.94.94,0,0,0,1.37-.69A22.73,22.73,0,0,0,112,5.87a13.5,13.5,0,0,1,2.48,8.44,1,1,0,0,0,.66.91.93.93,0,0,0,1-.36,15.18,15.18,0,0,1,5.89-4.76c-1.86,1.88-3.92,4.72-3.53,7.87a.9.9,0,0,0,.31.6,18.94,18.94,0,0,1,5.56,11.31c.81,7.48-2.66,15.44-5.2,21.25-.6,1.38-1.29,2.79-2,4.16-2.63,5.38-5.12,10.47-1.58,12.54a10.92,10.92,0,0,0,4.17,1.46c-2.34,1.34-5.79,1.22-6.38,1.19a11.2,11.2,0,0,1-.8-1.73.94.94,0,1,0-1.79.57c.07.22,1.75,5.37,5.93,6a23.6,23.6,0,0,0,4.36.21A8.08,8.08,0,0,1,117.11,78.19Z"/>
        <path d="M85.15,132.48a2.26,2.26,0,0,1-1.18-.31,3.56,3.56,0,0,1-1.35-1.83c-.09-.22-.19-.44-.3-.65-.42-.78-.51-.95-1.64-.61l-.66.21c-1.49.49-3.55,1.16-5-.1a3.6,3.6,0,0,1-.84-2.65c-.07-1.35-.14-2.51-1.54-3a6.45,6.45,0,0,0-3.81.22c-1.74.43-3.53.88-5.18-.28a3,3,0,0,1-1.48-3.08,1.43,1.43,0,0,0-.7-1.63c-1.88-1.29-3.73-1.17-6.17.41a.5.5,0,0,1-.55-.84c2.8-1.82,5.05-2,7.29-.4a2.37,2.37,0,0,1,1.13,2.54,2,2,0,0,0,1.07,2.17c1.26.9,2.76.53,4.34.13a7.39,7.39,0,0,1,4.41-.19c2,.75,2.12,2.51,2.2,3.92a3,3,0,0,0,.5,2c1,.87,2.57.35,4-.11l.68-.22c1.79-.54,2.29.1,2.8,1.06.15.28.25.52.36.76a2.66,2.66,0,0,0,.93,1.37,1.77,1.77,0,0,0,1.57,0,6.59,6.59,0,0,0,1.23-.74l.47-.32a5.21,5.21,0,0,1,2.37-1,2.87,2.87,0,0,1,2.55.94,3.87,3.87,0,0,1,.36.51c.26.41.48.65.65.66a.81.81,0,0,0,.35-.19c.21-.15.43-.32.64-.5.92-.75,2-1.59,3.24-1.27a3.83,3.83,0,0,1,1.09.54l.48.29c.32.16.76.2.91,0a.5.5,0,0,1,.7-.11.51.51,0,0,1,.11.71,1.74,1.74,0,0,1-2.17.29,5.36,5.36,0,0,1-.57-.34,2.65,2.65,0,0,0-.8-.41c-.79-.21-1.55.42-2.35,1.07l-.68.54a1.68,1.68,0,0,1-.88.37c-.79,0-1.25-.62-1.57-1.11a3.44,3.44,0,0,0-.29-.42,1.9,1.9,0,0,0-1.67-.58,4.3,4.3,0,0,0-1.91.8l-.45.3a8.25,8.25,0,0,1-1.41.85A3.46,3.46,0,0,1,85.15,132.48Z"/>
        <path d="M92.31,148.64a4.41,4.41,0,0,1-3.57-1.77,4,4,0,0,1-.23-.34,2.61,2.61,0,0,0-.51-.64,1.77,1.77,0,0,0-1-.28,11.63,11.63,0,0,0-2.72.3c-1.79.32-3.65.66-5.17-.48a6.27,6.27,0,0,1-1-1c-.17-.2-.35-.41-.54-.6s-.47-.51-.71-.78c-1-1.18-1.93-2.28-4.46-1.59-3.59,1-6.08,1.37-7.81-2.37a16.46,16.46,0,0,1-1.08-3.47c-.5-2.19-.77-2.88-2-2.73-.14,0-4.25.75-6.35-1.21A7.8,7.8,0,0,1,53,126.42a.5.5,0,0,1,.5-.5h0a.5.5,0,0,1,.5.5,6.89,6.89,0,0,0,1.78,4.5c1.75,1.61,5.49,1,5.53,1,2.27-.27,2.7,1.56,3.14,3.5a15.44,15.44,0,0,0,1,3.27c1.35,2.94,3.06,2.81,6.64,1.83,3.14-.86,4.44.67,5.49,1.9.21.25.42.5.64.72s.41.43.6.66a5.58,5.58,0,0,0,.87.88c1.17.87,2.74.59,4.39.29a13.29,13.29,0,0,1,2.94-.31,2.68,2.68,0,0,1,1.61.49,3.22,3.22,0,0,1,.74.89l.2.3a3.41,3.41,0,0,0,4.15,1,7.63,7.63,0,0,0,1.36-1,6.19,6.19,0,0,1,2-1.3,6.27,6.27,0,0,1,3.16,0l.79.12c.52.07,2.26.2,2.89-.86a.5.5,0,1,1,.86.51c-.92,1.54-3,1.45-3.88,1.34l-.83-.13a4.08,4.08,0,0,0-4.39,1.08,8,8,0,0,1-1.56,1.11A4.16,4.16,0,0,1,92.31,148.64Z"/>
        <path d="M90.33,139.35c-1.06,0-1.67-.9-2.21-1.7a6.84,6.84,0,0,0-.53-.73,2.87,2.87,0,0,0-3.29-.71,6.89,6.89,0,0,0-1.19.8,3.82,3.82,0,0,1-2.78,1.15c-1.31-.17-2-1.32-2.58-2.33a3.93,3.93,0,0,0-1.67-1.89c-.77-.3-2,.2-3.18.68l-.73.29c-1.61.63-3.59.64-4.25-.53a3.07,3.07,0,0,1-.29-1.56,5.25,5.25,0,0,0-.51-2.82,4.09,4.09,0,0,0-3-1.57,16,16,0,0,0-2-.06,19.19,19.19,0,0,1-2-.07,5,5,0,0,1-3.8-2,6.13,6.13,0,0,1-.44-.84,5.08,5.08,0,0,0-.41-.77c-.24-.33-.67-.61-1-.49a.5.5,0,1,1-.37-.93,1.91,1.91,0,0,1,2.16.85,5.94,5.94,0,0,1,.51.92,4.79,4.79,0,0,0,.37.71,4.21,4.21,0,0,0,3.06,1.52c.62.06,1.24.06,1.89.06a16.28,16.28,0,0,1,2.09.07,5,5,0,0,1,3.76,2,6,6,0,0,1,.66,3.34,2.26,2.26,0,0,0,.16,1.07c.32.56,1.7.6,3,.09l.71-.28c1.37-.56,2.78-1.14,3.93-.69a4.82,4.82,0,0,1,2.16,2.32c.55.93,1,1.73,1.84,1.83s1.33-.38,2-.94a8,8,0,0,1,1.37-.91,3.85,3.85,0,0,1,4.49,1c.2.24.4.53.59.81.55.81.9,1.29,1.45,1.26s.72-.39,1.15-1a4.37,4.37,0,0,1,1.11-1.16,3.45,3.45,0,0,1,3.57.28c.25.14.49.29.73.44a5.66,5.66,0,0,0,2,.93,1.76,1.76,0,0,0,1.42-.39.84.84,0,0,0,.32-.67.5.5,0,0,1,.48-.52h0a.5.5,0,0,1,.5.48,1.83,1.83,0,0,1-.66,1.47,2.83,2.83,0,0,1-2.25.63,6.41,6.41,0,0,1-2.34-1.07l-.69-.42c-.48-.28-1.69-.85-2.54-.31a3.82,3.82,0,0,0-.85.92,2.68,2.68,0,0,1-1.87,1.37Z"/>
      </g>
    </g>
  </g>
</svg>
