<svg xmlns="http://www.w3.org/2000/svg" width="129.7" height="44.49" viewBox="0 0 129.7 44.49">
  <g id="Calque_2" data-name="Calque 2">
    <g id="M-side-draw">
      <path d="M128.76,44.49H.94A.94.94,0,0,1,0,43.55V.94A.94.94,0,0,1,.94,0H128.76a.94.94,0,0,1,.94.94V43.55A.94.94,0,0,1,128.76,44.49ZM1.89,42.6H127.81V1.89H1.89Z"/>
      <path d="M16.88,30.77a3.67,3.67,0,0,1-2.41-1,3.18,3.18,0,0,1-1.2-2.85,4.62,4.62,0,0,1,.81-2.06,3.76,3.76,0,0,1-2.65-.93,4.29,4.29,0,0,1-1.32-3.48A3.14,3.14,0,0,1,11.58,18a4.26,4.26,0,0,1,2.28-.52L13.57,17a2.92,2.92,0,0,1-.31-3.21,2.69,2.69,0,0,1,2.45-1.07,4.36,4.36,0,0,1,2.66,1.16,4.8,4.8,0,0,1,1.14-1.48,3.93,3.93,0,0,1,3.63-.66,3,3,0,0,1,2.11,2.1,3.35,3.35,0,0,1,0,1.8,7,7,0,0,1,1.59-.09c1.44.08,2.8,1.48,3.53,2.65a3.33,3.33,0,0,1-.9,4.23,8.7,8.7,0,0,1-2.78,1.18,2.18,2.18,0,0,1,.24.41,5.16,5.16,0,0,1-.21,4.48,3.7,3.7,0,0,1-1,1.35,3,3,0,0,1-2.21.64A3.66,3.66,0,0,1,21,29.18a3.77,3.77,0,0,1-.43-.64l-.17.18C19.9,29.32,18.58,30.77,16.88,30.77Zm-.25-8.06a.94.94,0,0,1,.44,1.77,4.66,4.66,0,0,0-1.93,2.65,1.3,1.3,0,0,0,.55,1.2c1.22,1,2.09.52,3.35-.88.12-.13.22-.24.31-.32a2.84,2.84,0,0,0,.71-1.53,7.06,7.06,0,0,1,.1-.77.94.94,0,0,1,1.87.25c0,.26-.05.51-.09.74A3.16,3.16,0,0,0,22.5,28a1.78,1.78,0,0,0,1.18.62,1.06,1.06,0,0,0,.82-.21,1.82,1.82,0,0,0,.46-.67,3.43,3.43,0,0,0,.24-2.87,2.16,2.16,0,0,0-1.13-1A2.12,2.12,0,0,1,23,23.45a.94.94,0,0,1,.81-1.65,7.32,7.32,0,0,1,.82.24A8.63,8.63,0,0,0,28.24,21a1.5,1.5,0,0,0,.49-1.77c-.6-1-1.49-1.74-2-1.77a4.59,4.59,0,0,0-2.86.78,6.55,6.55,0,0,1-1.42,1.42.94.94,0,0,1-1.35-1.29,6.85,6.85,0,0,1,1.41-1.48c.11-.16.24-.35.38-.58a2.62,2.62,0,0,0,.58-2,1.23,1.23,0,0,0-.86-.78,2,2,0,0,0-1.84.31h0a3.29,3.29,0,0,0-1,2.09,3.6,3.6,0,0,1,.11,1.66.93.93,0,0,1-.87.78.94.94,0,0,1-1-.67,5,5,0,0,1-.19-1.5,2.49,2.49,0,0,0-.35-.58,2.62,2.62,0,0,0-1.83-1,.93.93,0,0,0-.77.21c-.12.19,0,.67.32,1.17l.33.54a3.94,3.94,0,0,0,1.38,1.56.94.94,0,0,1-.93,1.64,3.48,3.48,0,0,0-1.85-.37h-.2a2.52,2.52,0,0,0-1.33.25,1.28,1.28,0,0,0-.57,1,2.37,2.37,0,0,0,.7,1.9c.63.57,1.39.49,2.68.32.39-.06.79-.11,1.2-.14Zm3.49-9.59h0Z"/>
      <path d="M66.46,30.31a3,3,0,0,1-2.26-1,6.56,6.56,0,0,1-1.29-3.95,6.68,6.68,0,0,1-.88.73c-1.39.92-3.44,2-5.22.9a3.37,3.37,0,0,1-1-4.41,4.55,4.55,0,0,1,2.32-2c-1.49-1.06-2.49-3.26-1.53-5.06S60,13.37,61.74,14.1l.27.13a4.54,4.54,0,0,1,1.19-3.3,2.42,2.42,0,0,1,2.39-.75A2.34,2.34,0,0,1,67.08,12a4.94,4.94,0,0,1,3.31-1.89,3.55,3.55,0,0,1,2.73.79A4.14,4.14,0,0,1,74,15.62a6.48,6.48,0,0,1-1,1.59,8.21,8.21,0,0,1,2.7.91,5.08,5.08,0,0,1,2.41,2.42,3.3,3.3,0,0,1-.64,3.69,4.69,4.69,0,0,1-3.48.91,12,12,0,0,1-3.76-.65,6.43,6.43,0,0,1,.15,3,3.62,3.62,0,0,1-3.71,2.82ZM64,21.56a.91.91,0,0,1,.32.06.93.93,0,0,1,.61,1c-.22,1.56-.23,4.41.7,5.43a1.12,1.12,0,0,0,1,.36c1.5-.09,1.84-.82,2-1.37a5.92,5.92,0,0,0-1.15-4.2,4.12,4.12,0,0,1-.4-.33.93.93,0,0,1-.16-1.25A.94.94,0,0,1,68.06,21a2.36,2.36,0,0,1,.55.44A8.29,8.29,0,0,0,74,23.25a3.1,3.1,0,0,0,2.13-.4,1.45,1.45,0,0,0,.2-1.57,3.38,3.38,0,0,0-1.56-1.49,5.58,5.58,0,0,0-4.45-.51,6.51,6.51,0,0,1-2.45,1,.94.94,0,0,1-.45-1.77,11.47,11.47,0,0,1,2.13-.94l.37-.22a5.5,5.5,0,0,0,2.29-2.46,2.34,2.34,0,0,0-.36-2.59,1.67,1.67,0,0,0-1.29-.35,3.08,3.08,0,0,0-2,1.17,11.11,11.11,0,0,0-1.49,5.25,1,1,0,0,1-1,.85.93.93,0,0,1-.86-1l0-.59a27.29,27.29,0,0,0,.11-4.66c-.09-.72-.27-.94-.33-1s-.25,0-.46.27A2.83,2.83,0,0,0,64,14.71a22.16,22.16,0,0,0,1,3.15.94.94,0,0,1-1.72.77A7.32,7.32,0,0,0,61,15.83a2.21,2.21,0,0,0-2.72.62,2.28,2.28,0,0,0,1,2.66,5.46,5.46,0,0,0,2.61.49.91.91,0,0,1,1,.77.93.93,0,0,1-.62,1.06,21.67,21.67,0,0,1-2.54.69,3.07,3.07,0,0,0-2.22,1.39,1.52,1.52,0,0,0,.34,1.92c.64.4,1.67.11,3.16-.88A9.49,9.49,0,0,0,63.16,22,1,1,0,0,1,64,21.56Z"/>
      <path d="M109.82,31.42a4.43,4.43,0,0,1-3.68-2.48,5,5,0,0,1-3.68,1.63h0a3.91,3.91,0,0,1-3.84-2.68c-.72-2.27.57-4.57,2-6a5.05,5.05,0,0,1-.77-.39,3.37,3.37,0,0,1,1.36-6.26,3.25,3.25,0,0,1,1.49.09,2.94,2.94,0,0,1,0-.42,4.38,4.38,0,0,1,1.7-3.42,3.2,3.2,0,0,1,2.76-.48c1.57.45,1.86,2.32,2,4.21,1.23-2,3.09-4.2,5.17-3.61a2.75,2.75,0,0,1,1.27.74,3,3,0,0,1,.69,1.68,5.5,5.5,0,0,1-1.9,4.24,11,11,0,0,1,2.76-.11,3.21,3.21,0,0,1,1.78.73,3,3,0,0,1,.79,2.36,4.54,4.54,0,0,1-.74,2.59,4.37,4.37,0,0,1-5,1.28,6.43,6.43,0,0,1-.13,2.86,4.58,4.58,0,0,1-3.23,3.34A3.71,3.71,0,0,1,109.82,31.42Zm-2.23-6.08a7.82,7.82,0,0,0-.26,1.57c.35,1.44,1.58,2.85,2.82,2.58a2.77,2.77,0,0,0,1.81-2,4.75,4.75,0,0,0-.76-4.06c-.4-.36-.78-.74-1.14-1.1a1,1,0,0,1-.09-1.22.92.92,0,0,1-.5-.49,1,1,0,0,1,.38-1.2c1.24-.72,4.73-3.2,4.49-5.11a1.19,1.19,0,0,0-.2-.64.8.8,0,0,0-.4-.2c-1.24-.38-3.49,3.06-4.42,5.48a.94.94,0,0,1-.87.61,1,1,0,0,1-.88-.58,8.44,8.44,0,0,1-.33-2.68c0-.9-.11-3.28-.63-3.43h0a1.29,1.29,0,0,0-1.14.19,2.6,2.6,0,0,0-.92,2,3.12,3.12,0,0,0,.6,1.87,10.08,10.08,0,0,1,1,1.14.93.93,0,0,1-.09,1.24,1,1,0,0,1-1.25.07,6.76,6.76,0,0,1-1.09-1.18,3,3,0,0,0-2.21-1c-.3.05-1.29.3-1.46,1.14a1.59,1.59,0,0,0,.75,1.66,2.76,2.76,0,0,0,1.77.44l1-.09a3.45,3.45,0,0,1,.74-.05.94.94,0,0,1,0,1.88l-.51,0a3.72,3.72,0,0,0-1.68.92c-1.16,1-2.19,2.81-1.73,4.26a2,2,0,0,0,2,1.36h0a2.89,2.89,0,0,0,2.76-1.82c.09-.28.29-1,.5-1.81q.21-.93.57-2.19a1,1,0,0,1,1.16-.65.94.94,0,0,1,.66,1.14C108.09,23.42,107.85,24.37,107.59,25.34Zm5-3.24a6.6,6.6,0,0,0,2,1.25,2.5,2.5,0,0,0,2.85-.57,2.86,2.86,0,0,0,.41-1.55c0-.64-.12-.87-.21-.95a1.63,1.63,0,0,0-.73-.23,17.42,17.42,0,0,0-5.51.85A6.41,6.41,0,0,1,112.56,22.1Z"/>
      <path d="M19.73,25.93a5.52,5.52,0,0,1-.71-.05,5.42,5.42,0,0,1-3.66-2.29,4.19,4.19,0,0,1,2.12-6.5c1.27-.39,3.8-.21,5.05,1.16h0c1.32,1.44,2.21,3.84,1.07,5.69A4.51,4.51,0,0,1,19.73,25.93Zm-.87-7.14a3.11,3.11,0,0,0-.82.1,2.38,2.38,0,0,0-1.56,1.68,2.42,2.42,0,0,0,.44,1.95A3.58,3.58,0,0,0,19.27,24,2.76,2.76,0,0,0,22,23c.68-1.1-.14-2.66-.85-3.44A3.34,3.34,0,0,0,18.86,18.79Z"/>
      <path d="M65.14,23.58c-1.67,0-3.67-.65-4.08-2.5s1.13-3.36,2.77-3.79c1.47-.39,4.27.19,4.94,1.63h0a3.31,3.31,0,0,1-.47,3.51,3.84,3.84,0,0,1-3,1.15Zm-.25-4.53a2.65,2.65,0,0,0-.58.06c-.78.21-1.55.92-1.41,1.56s1.31,1,2.38,1a2.24,2.24,0,0,0,1.6-.49,1.46,1.46,0,0,0,.18-1.48A3.54,3.54,0,0,0,64.89,19.05Z"/>
      <path d="M107.75,24.09a6.72,6.72,0,0,1-1.91-.29,3.74,3.74,0,0,1-1.94-1.1,2.71,2.71,0,0,1-.57-2.3A3.39,3.39,0,0,1,105,18.08a4.74,4.74,0,0,1,4.46.3l.64.29.08,0a2.42,2.42,0,0,1,1.2,2,3.14,3.14,0,0,1-1.22,2.67A4,4,0,0,1,107.75,24.09Zm-.92-4.55a1.91,1.91,0,0,0-.94.22,1.48,1.48,0,0,0-.7,1,.83.83,0,0,0,.14.72,2.11,2.11,0,0,0,1,.52,3.36,3.36,0,0,0,2.71-.15,1.21,1.21,0,0,0,.44-1,.54.54,0,0,0-.2-.45l-.63-.28-.09,0A3.68,3.68,0,0,0,106.83,19.54Z"/>
    </g>
  </g>
</svg>
