<?xml version="1.0" encoding="UTF-8"?>
<svg xmlns="http://www.w3.org/2000/svg" width="800.000" height="600.000" viewBox="0.0 0.0 800.000 600.000" version="1.1">
  <title>Produce by Acme CAD Converter</title>
  <desc>Produce by Acme CAD Converter</desc>
<polyline points="342.27,237.55 342.46,233.94 343.05,230.38 344.01,226.9 345.35,223.55 347.04,220.36 349.07,217.38 351.4,214.62 354.02,212.14 356.9,209.96 359.99,208.1 363.26,206.58 366.68,205.43 370.21,204.65 373.8,204.26 377.41,204.26 380.99,204.65 384.52,205.43 387.94,206.58 391.21,208.1 394.31,209.96 397.18,212.14 399.8,214.62 402.14,217.38 404.16,220.36 405.85,223.55 407.19,226.9 408.15,230.38 408.74,233.94 408.93,237.55 408.74,241.15 408.15,244.71 407.19,248.19 405.85,251.54 404.16,254.73 402.14,257.72 399.8,260.47 397.18,262.95 394.31,265.14 391.21,267 387.94,268.51 384.52,269.66 380.99,270.44 377.41,270.83 373.8,270.83 370.21,270.44 366.68,269.66 363.26,268.51 359.99,267 356.9,265.14 354.02,262.95 351.4,260.47 349.07,257.72 347.04,254.73 345.35,251.54 344.01,248.19 343.05,244.71 342.46,241.15 342.27,237.55" style="fill:none;stroke:black;stroke-width:0.5"/>
<polyline points="675.49,229.24 675.69,225.64 676.27,222.07 677.24,218.6 678.57,215.24 680.26,212.05 682.29,209.07 684.63,206.32 687.25,203.83 690.12,201.65 693.21,199.79 696.49,198.27 699.91,197.12 703.43,196.35 707.02,195.96 710.63,195.96 714.22,196.35 717.74,197.12 721.16,198.27 724.44,199.79 727.53,201.65 730.4,203.83 733.02,206.32 735.36,209.07 737.39,212.05 739.08,215.24 740.41,218.6 741.38,222.07 741.96,225.64 742.16,229.24 741.96,232.84 741.38,236.41 740.41,239.88 739.08,243.24 737.39,246.42 735.36,249.41 733.02,252.16 730.4,254.64 727.53,256.83 724.44,258.69 721.16,260.21 717.74,261.36 714.22,262.13 710.63,262.52 707.02,262.52 703.43,262.13 699.91,261.36 696.49,260.21 693.21,258.69 690.12,256.83 687.25,254.64 684.63,252.16 682.29,249.41 680.26,246.42 678.57,243.24 677.24,239.88 676.27,236.41 675.69,232.84 675.49,229.24" style="fill:none;stroke:black;stroke-width:0.5"/>
<polyline points="134.63,482.46 419.05,308.65" style="fill:none;stroke:black;stroke-width:0.5"/>
<polyline points="332.15,166.44 47.72,340.25" style="fill:none;stroke:black;stroke-width:0.5"/>
<polyline points="668.97,302.42 660.37,297.95 651.6,293.82 642.67,290.03 633.61,286.59 624.42,283.5 615.12,280.77 605.71,278.4 596.23,276.4 586.67,274.77 577.06,273.51 567.4,272.63 557.72,272.12 548.02,271.98 538.33,272.22 528.66,272.84 519.01,273.83 509.41,275.2 499.87,276.93 490.41,279.04 481.03,281.51 471.76,284.34 462.61,287.53 453.58,291.07 444.7,294.96 435.98,299.19 427.42,303.76 419.05,308.65" style="fill:none;stroke:black;stroke-width:0.5"/>
<polyline points="47.72,340.25 42.97,343.38 38.45,346.83 34.17,350.57 30.15,354.61 26.42,358.9 22.99,363.44 19.88,368.21 17.1,373.18 14.67,378.32 12.59,383.62 10.88,389.04 9.55,394.58 8.59,400.18 8.03,405.85 7.84,411.53 8.05,417.22 8.64,422.88 9.62,428.48 10.98,434.01 12.72,439.43 14.81,444.72 17.27,449.85 20.07,454.81 23.2,459.56 26.65,464.08 30.4,468.36 34.43,472.38 38.73,476.11 43.27,479.54 48.03,482.65 53,485.43 58.14,487.86 63.44,489.93 68.87,491.64 74.4,492.98 80.01,493.93 85.67,494.5 91.35,494.69 97.04,494.48 102.7,493.88 108.31,492.91 113.83,491.55 119.25,489.81 124.54,487.71 129.67,485.26 134.63,482.46" style="fill:none;stroke:black;stroke-width:0.5"/>
<polyline points="748.68,156.06 737.32,150.09 725.78,144.48 714.07,139.23 702.2,134.34 690.19,129.82 678.05,125.67 665.78,121.9 653.41,118.5 640.93,115.49 628.37,112.87 615.74,110.63 603.04,108.78 590.29,107.33 577.5,106.26 564.68,105.59 551.86,105.32 539.02,105.44 526.2,105.96 513.4,106.87 500.64,108.18 487.92,109.88 475.25,111.97 462.66,114.44 450.15,117.31 437.74,120.56 425.43,124.19 413.24,128.19 401.18,132.57 389.26,137.32 377.49,142.44 365.88,147.91 354.45,153.74 343.2,159.92 332.15,166.44" style="fill:none;stroke:black;stroke-width:0.5"/>
<polyline points="668.97,302.42 674.06,304.97 679.31,307.17 684.69,309 690.19,310.46 695.78,311.54 701.43,312.24 707.11,312.55 712.8,312.48 718.47,312.01 724.09,311.16 729.65,309.93 735.11,308.32 740.44,306.34 745.63,304 750.65,301.32 755.47,298.3 760.07,294.95 764.44,291.3 768.54,287.36 772.37,283.15 775.9,278.69 779.12,274 782.01,269.09 784.56,264.01 786.75,258.76 788.59,253.37 790.05,247.87 791.13,242.29 791.83,236.64 792.14,230.96 792.06,225.27 791.6,219.6 790.75,213.97 789.51,208.42 787.9,202.96 785.93,197.62 783.59,192.43 780.9,187.42 777.88,182.6 774.54,177.99 770.89,173.63 766.95,169.52 762.74,165.7 758.27,162.16 753.58,158.95 748.68,156.06" style="fill:none;stroke:black;stroke-width:0.5"/>
<polyline points="7.84,578.81 17.24,592.24 36.04,592.24 45.44,578.81 7.84,525.1 17.24,511.68 36.04,511.68 45.44,525.1" style="fill:none;stroke:black;stroke-width:0.5"/>
<polyline points="64.23,592.24 64.23,511.68 101.83,511.68 101.83,592.24 64.23,592.24" style="fill:none;stroke:black;stroke-width:0.5"/>
<polyline points="120.63,511.68 120.63,592.24 158.22,592.24" style="fill:none;stroke:black;stroke-width:0.5"/>
<polyline points="177.02,511.68 195.81,511.68" style="fill:none;stroke:black;stroke-width:0.5"/>
<polyline points="186.42,511.68 186.42,592.24" style="fill:none;stroke:black;stroke-width:0.5"/>
<polyline points="177.02,592.24 195.81,592.24" style="fill:none;stroke:black;stroke-width:0.5"/>
<polyline points="214.61,592.24 242.81,592.24 252.2,578.81 252.2,525.1 242.81,511.68 214.61,511.68" style="fill:none;stroke:black;stroke-width:0.5"/>
<polyline points="224.01,511.68 224.01,592.24" style="fill:none;stroke:black;stroke-width:0.5"/>
<polyline points="271,511.68 289.8,592.24 299.2,551.96 308.6,592.24 327.39,511.68" style="fill:none;stroke:black;stroke-width:0.5"/>
<polyline points="346.19,592.24 346.19,511.68 383.78,511.68 383.78,592.24 346.19,592.24" style="fill:none;stroke:black;stroke-width:0.5"/>
<polyline points="402.58,592.24 402.58,511.68 430.78,511.68 440.18,525.1 440.18,538.53 430.78,551.96 402.58,551.96" style="fill:none;stroke:black;stroke-width:0.5"/>
<polyline points="411.98,551.96 440.18,592.24" style="fill:none;stroke:black;stroke-width:0.5"/>
<polyline points="458.97,592.24 458.97,511.68" style="fill:none;stroke:black;stroke-width:0.5"/>
<polyline points="496.57,511.68 468.37,551.96 458.97,551.96" style="fill:none;stroke:black;stroke-width:0.5"/>
<polyline points="468.37,551.96 496.57,592.24" style="fill:none;stroke:black;stroke-width:0.5"/>
<polyline points="515.36,578.81 524.76,592.24 543.56,592.24 552.96,578.81 515.36,525.1 524.76,511.68 543.56,511.68 552.96,525.1" style="fill:none;stroke:black;stroke-width:0.5"/>
<polyline points="628.15,592.24 628.15,511.68 646.94,565.38 665.74,511.68 665.74,592.24" style="fill:none;stroke:black;stroke-width:0.5"/>
<polyline points="703.33,592.24 693.94,592.24 684.54,578.81 684.54,551.96 693.94,538.53 703.33,538.53 712.73,551.96 712.73,578.81 703.33,592.24" style="fill:none;stroke:black;stroke-width:0.5"/>
<polyline points="712.73,578.81 722.13,592.24" style="fill:none;stroke:black;stroke-width:0.5"/>
<polyline points="740.93,592.24 740.93,511.68" style="fill:none;stroke:black;stroke-width:0.5"/>
<polyline points="740.93,565.38 759.73,565.38 778.52,538.53" style="fill:none;stroke:black;stroke-width:0.5"/>
<polyline points="759.73,565.38 778.52,592.24" style="fill:none;stroke:black;stroke-width:0.5"/>
<polyline points="797.32,565.38 800,565.38" style="fill:none;stroke:black;stroke-width:0.5"/>
<polyline points="800,548.13 797.32,551.96 797.32,578.81 800,582.64" style="fill:none;stroke:black;stroke-width:0.5"/>
</svg>
