<?xml version="1.0" encoding="UTF-8"?>
<svg xmlns="http://www.w3.org/2000/svg" width="800.000" height="600.000" viewBox="0.0 0.0 800.000 600.000" version="1.1">
  <title>Produce by Acme CAD Converter</title>
  <desc>Produce by Acme CAD Converter</desc>
<polyline points="149.13,509.17 149.33,505.5 149.93,501.87 150.91,498.32 152.27,494.9 154,491.65 156.06,488.61 158.44,485.8 161.11,483.27 164.04,481.05 167.19,479.15 170.53,477.61 174.02,476.43 177.61,475.64 181.27,475.24 184.95,475.24 188.61,475.64 192.2,476.43 195.69,477.61 199.03,479.15 202.18,481.05 205.11,483.27 207.78,485.8 210.16,488.61 212.22,491.65 213.95,494.9 215.31,498.32 216.29,501.87 216.89,505.5 217.09,509.17 216.89,512.85 216.29,516.48 215.31,520.02 213.95,523.44 212.22,526.69 210.16,529.73 207.78,532.54 205.11,535.07 202.18,537.29 199.03,539.19 195.69,540.74 192.2,541.91 188.61,542.7 184.95,543.1 181.27,543.1 177.61,542.7 174.02,541.91 170.53,540.74 167.19,539.19 164.04,537.29 161.11,535.07 158.44,532.54 156.06,529.73 154,526.69 152.27,523.44 150.91,520.02 149.93,516.48 149.33,512.85 149.13,509.17" style="fill:none;stroke:black;stroke-width:0.5"/>
<polyline points="486.52,90.83 486.72,87.15 487.31,83.52 488.29,79.98 489.66,76.56 491.38,73.31 493.44,70.27 495.83,67.46 498.5,64.93 501.43,62.71 504.58,60.81 507.92,59.26 511.4,58.09 515,57.3 518.65,56.9 522.33,56.9 525.99,57.3 529.58,58.09 533.07,59.26 536.41,60.81 539.56,62.71 542.49,64.93 545.16,67.46 547.54,70.27 549.61,73.31 551.33,76.56 552.69,79.98 553.68,83.52 554.27,87.15 554.47,90.83 554.27,94.5 553.68,98.13 552.69,101.68 551.33,105.1 549.61,108.35 547.54,111.39 545.16,114.2 542.49,116.73 539.56,118.95 536.41,120.85 533.07,122.39 529.58,123.57 525.99,124.36 522.33,124.76 518.65,124.76 515,124.36 511.4,123.57 507.92,122.39 504.58,120.85 501.43,118.95 498.5,116.73 495.83,114.2 493.44,111.39 491.38,108.35 489.66,105.1 488.29,101.68 487.31,98.13 486.72,94.5 486.52,90.83" style="fill:none;stroke:black;stroke-width:0.5"/>
<polyline points="214.5,588.1 551.89,453.92" style="fill:none;stroke:black;stroke-width:0.5"/>
<polyline points="489.1,296.05 151.72,430.24" style="fill:none;stroke:black;stroke-width:0.5"/>
<polyline points="551.89,453.92 560.75,450.19 569.45,446.1 577.97,441.66 586.32,436.89 594.46,431.78 602.39,426.35 610.09,420.6 617.55,414.54 624.77,408.19 631.72,401.55 638.39,394.63 644.79,387.45 650.88,380.02 656.67,372.35 662.15,364.45 667.3,356.34 672.12,348.02 676.61,339.52 680.74,330.84 684.52,322 687.94,313.02 690.99,303.9 693.68,294.67 695.98,285.34 697.91,275.93 699.46,266.44 700.62,256.9 701.4,247.32 701.79,237.71 701.79,228.1 701.4,218.5 700.62,208.92 699.46,199.37 697.91,189.89 695.98,180.47 693.68,171.14 690.99,161.91 687.94,152.8 684.52,143.81 680.74,134.98 676.61,126.3 672.12,117.79 667.3,109.48 662.15,101.36 656.67,93.46 650.88,85.79 644.79,78.36 638.39,71.18 631.72,64.27 624.77,57.63 617.55,51.28 610.09,45.22 602.39,39.47 594.46,34.04 586.32,28.93 577.97,24.15 569.45,19.72 560.75,15.63 551.89,11.9" style="fill:none;stroke:black;stroke-width:0.5"/>
<polyline points="151.72,430.24 146.4,432.57 141.26,435.25 136.31,438.28 131.58,441.64 127.1,445.31 122.87,449.28 118.92,453.53 115.27,458.04 111.94,462.79 108.94,467.75 106.29,472.91 104,478.24 102.07,483.71 100.52,489.3 99.36,494.98 98.58,500.73 98.2,506.52 98.22,512.32 98.63,518.1 99.44,523.85 100.64,529.52 102.22,535.1 104.18,540.56 106.5,545.88 109.19,551.02 112.22,555.97 115.57,560.7 119.25,565.18 123.22,569.41 127.47,573.36 131.98,577.01 136.73,580.34 141.69,583.34 146.85,585.99 152.18,588.29 157.65,590.21 163.24,591.76 168.92,592.92 174.67,593.7 180.46,594.08 186.26,594.06 192.04,593.65 197.79,592.84 203.46,591.64 209.04,590.06 214.5,588.1" style="fill:none;stroke:black;stroke-width:0.5"/>
<polyline points="489.1,296.05 493.73,294.01 498.2,291.62 502.48,288.91 506.54,285.89 510.36,282.58 513.93,278.99 517.23,275.14 520.22,271.06 522.91,266.77 525.26,262.29 527.28,257.65 528.95,252.86 530.25,247.97 531.19,243 531.76,237.97 531.94,232.91 531.76,227.85 531.19,222.82 530.25,217.84 528.95,212.95 527.28,208.17 525.26,203.53 522.91,199.05 520.22,194.75 517.23,190.67 513.93,186.83 510.36,183.24 506.54,179.92 502.48,176.9 498.2,174.19 493.73,171.81 489.1,169.76" style="fill:none;stroke:black;stroke-width:0.5"/>
<polyline points="551.89,11.9 546.43,9.94 540.85,8.36 535.17,7.16 529.43,6.35 523.64,5.94 517.84,5.92 512.05,6.3 506.31,7.08 500.62,8.24 495.03,9.79 489.56,11.71 484.24,14.01 479.08,16.66 474.11,19.66 469.36,22.99 464.85,26.64 460.6,30.59 456.63,34.82 452.96,39.3 449.6,44.03 446.57,48.98 443.89,54.12 441.56,59.44 439.6,64.9 438.02,70.48 436.83,76.15 436.02,81.9 435.61,87.68 435.59,93.48 435.97,99.27 436.74,105.02 437.91,110.7 439.45,116.29 441.38,121.76 443.68,127.09 446.33,132.25 449.33,137.21 452.66,141.96 456.31,146.47 460.25,150.72 464.48,154.69 468.97,158.36 473.7,161.72 478.65,164.75 483.79,167.43 489.1,169.76" style="fill:none;stroke:black;stroke-width:0.5"/>
</svg>
