<?xml version="1.0" encoding="UTF-8" standalone="yes"?>
<!-- Created with sK1/UniConvertor (http://sk1project.org/) -->
<svg xmlns="http://www.w3.org/2000/svg" xmlns:xlink="http://www.w3.org/1999/xlink"
  width="595.276pt" height="841.89pt" viewBox="0 0 595.276 841.89"
  fill-rule="evenodd">
<g>
<path style="stroke:#000000; stroke-width:0.850394; stroke-linejoin:round; stroke-linecap:round; fill:none" d="M 165.482 723.688C 165.482 697.591 144.299 676.408 118.201 676.408C 92.1039 676.408 70.9208 697.591 70.9208 723.688C 70.9208 749.786 92.1039 770.969 118.201 770.969C 144.299 770.969 165.482 749.786 165.482 723.688z"/>
<path style="stroke:#000000; stroke-width:0.850394; stroke-linejoin:round; stroke-linecap:round; fill:none" d="M 634.946 141.573C 634.946 115.475 613.763 94.292 587.666 94.292C 561.569 94.292 540.385 115.475 540.385 141.573C 540.385 167.67 561.569 188.853 587.666 188.853C 613.763 188.853 634.946 167.67 634.946 141.573z"/>
<path style="stroke:#000000; stroke-width:0.850394; stroke-linejoin:round; stroke-linecap:round; fill:none" d="M 161.884 833.522L 631.349 646.805"/>
<path style="stroke:#000000; stroke-width:0.850394; stroke-linejoin:round; stroke-linecap:round; fill:none" d="M 543.983 427.139L 74.5182 613.855"/>
<path style="stroke:#000000; stroke-width:0.850394; stroke-linejoin:round; stroke-linecap:round; fill:none" d="M 631.376 646.859C 753.564 598.171 840 478.748 840 339.272C 840 199.797 753.564 80.3735 631.376 31.6856"/>
<path style="stroke:#000000; stroke-width:0.850394; stroke-linejoin:round; stroke-linecap:round; fill:none" d="M 74.5086 613.836C 30.8699 631.225 2.84217e-14 673.876 2.84217e-14 723.688C 2.84217e-14 788.932 52.9577 841.89 118.201 841.89C 133.632 841.89 148.376 838.927 161.894 833.541"/>
<path style="stroke:#000000; stroke-width:0.850394; stroke-linejoin:round; stroke-linecap:round; fill:none" d="M 543.991 427.154C 578.902 413.243 603.597 379.122 603.597 339.272C 603.597 299.422 578.902 265.301 543.991 251.39"/>
<path style="stroke:#000000; stroke-width:0.850394; stroke-linejoin:round; stroke-linecap:round; fill:none" d="M 631.359 31.7202C 617.84 26.3336 603.097 23.3712 587.666 23.3712C 522.422 23.3712 469.465 76.329 469.465 141.573C 469.465 191.385 500.335 234.036 543.973 251.425"/>
</g>
</svg>