<svg xmlns="http://www.w3.org/2000/svg" width="199.43" height="228.77" viewBox="0 0 199.43 228.77">
  <g id="Calque_2" data-name="Calque 2">
    <g id="Calque_2_-_copie_2" data-name="Calque 2 - copie 2">
      <g>
        <path d="M5.8,220.51c-.28-.7-6.77-17.12-5.68-26.94,1.16-10.41,18.7-31.34,40.42-43.78a1.09,1.09,0,0,1,.5-.13H72.13A5.15,5.15,0,0,1,76.45,152l5.27,7.9A94.83,94.83,0,0,1,98,155c.19-1,1-2.73,3.68-5.1,2-1.82,1.84-4.06,1.53-7.45a31.08,31.08,0,0,1,0-7.86c1.1-7.57,6.52-25.27,11.53-33.59V95.93c-2.67.2-9.47.44-13.32-1.84-4.46-2.65-7.61-6-8-8.67a1,1,0,0,1,.38-1A49.57,49.57,0,0,0,98.67,80a12.43,12.43,0,0,1-4.61.81,12.83,12.83,0,0,1-5.64-1.44,1,1,0,0,1-.46-.66,1,1,0,0,1,.18-.78,6.78,6.78,0,0,0,.93-3.53,4.4,4.4,0,0,1-4.83-2.92A4.07,4.07,0,0,1,84.8,67a4.67,4.67,0,0,1,4.52-1.37.35.35,0,0,0,.15,0c.23-.13.67-1.37.42-4.24,0-.43-.11-1.09-.2-1.9-.45-3.95-1.28-11.3-.54-15.26a22.71,22.71,0,0,1,3.07-8l1.65,1.12a21.28,21.28,0,0,0-2.75,7.26c-.69,3.66.12,10.82.56,14.66.09.84.17,1.51.2,1.95.41,4.67-.75,5.63-1.13,6a2.09,2.09,0,0,1-2,.38,2.68,2.68,0,0,0-2.5.77,2.16,2.16,0,0,0-.19,2.4,2.58,2.58,0,0,0,3.55,1.49,1.05,1.05,0,0,1,.9.08A1,1,0,0,1,91,73a10.34,10.34,0,0,1-.7,5,13.34,13.34,0,0,0,3.87.76c3.09.2,7.58-2.42,7.63-2.44a1,1,0,0,1,1.31,1.45,46,46,0,0,1-7.66,7.85c.64,1.74,3.06,4.43,6.93,6.73,4.2,2.48,13.1,1.48,13.19,1.48a1,1,0,0,1,.78.24,1,1,0,0,1,.33.75v6.45a1.08,1.08,0,0,1-.14.53c-4.77,7.75-10.32,25.55-11.41,33.06a29.24,29.24,0,0,0,0,7.39c.33,3.56.62,6.64-2.19,9.14-3,2.68-3,4-3,4.14a1,1,0,0,1-.08.74,1,1,0,0,1-.67.51c-11.38,2.41-17.34,5.22-17.4,5.25a1,1,0,0,1-1.26-.35l-5.75-8.61a3.15,3.15,0,0,0-2.65-1.43H41.31c-22.51,13-38.25,33.58-39.2,42.13-1,9.32,5.48,25.81,5.55,26Zm94.11-65.06h0Z"/>
        <ellipse cx="99.95" cy="63.69" rx="2.09" ry="5.53" transform="translate(-5.28 9.17) rotate(-5.12)"/>
        <path d="M100.44,69.19a.49.49,0,0,1-.48-.39.5.5,0,0,1,.38-.58,9.61,9.61,0,0,0,3.93-1.88.49.49,0,0,1,.64.75,10.72,10.72,0,0,1-4.37,2.09Z"/>
        <path d="M96.66,54.69C96.28,55.1,97.58,58,98,58s.21-1.45.94-1.85a3.24,3.24,0,0,1,4.16,1.13c1.45,2,3.07,4.76,3.4,5.19s.91.21.64-1.32-2.45-5.59-4.83-6.94A4.53,4.53,0,0,0,96.66,54.69Z"/>
        <ellipse cx="108.79" cy="73.49" rx="4.8" ry="4.79"/>
        <path d="M172,77.59a14.26,14.26,0,0,1-4.39-.63,1,1,0,1,1,.67-1.89,13.79,13.79,0,0,0,7.59,0,11.11,11.11,0,0,0,7-6,11,11,0,0,1-6.51-1.42c-4.51-2.63-3-9.36-2.2-13a44.52,44.52,0,0,1,1.61-4.84c1.83-5,4.58-12.44,4-18a20.4,20.4,0,0,0-5.92-12,.91.91,0,0,1-.33-.62c-.42-3.36,1.78-6.39,3.76-8.39A16,16,0,0,0,171,15.82a1,1,0,0,1-1.12.38,1,1,0,0,1-.7-1,14.27,14.27,0,0,0-2.65-9,23.75,23.75,0,0,1-.22,5.6,1,1,0,0,1-.53.74,1,1,0,0,1-.92,0L153.22,6.45c-11.47-6-28.45-5.34-39.3-1.55s-25.16,15.2-23.45,25c1.54,8.87,13.13,17,18.7,20.89.78.54,1.44,1,2,1.39a17.66,17.66,0,0,1,3,2.81c-.48-2.17-1.14-4.44-1.5-5.58a1,1,0,0,1,.42-1.14,1,1,0,0,1,1.21.1c.23.21,1.14,1.26,3.12,5.94a59.92,59.92,0,0,1,2.05,6.26c1.21,4.18,2.59,8.92,4.83,11.8a5.31,5.31,0,0,0,1.35,1.24,19.36,19.36,0,0,1-1.08-5.84,34.47,34.47,0,0,0-.83-5.7,1,1,0,0,1,1.92-.55,35.18,35.18,0,0,1,.9,6.09c.15,1.85.43,5.29,1.64,6.22a1.48,1.48,0,0,0,1.28.23A1,1,0,0,1,130,76a6.63,6.63,0,0,1-7.28-2.38c-2.47-3.18-3.91-8.12-5.17-12.47-.27-.94-.54-1.85-.8-2.71a8.4,8.4,0,0,1,0,1.34,1,1,0,0,1-2,.15,13.08,13.08,0,0,0-4.81-6.13L108,52.44c-5.79-4-17.83-12.49-19.52-22.18C86.54,19,101.89,7,113.26,3s28.92-4.63,40.89,1.67l10.37,5.46c.23-2.71.06-6.05-1.09-6.72a1,1,0,0,1,1-1.75c.25.13,5.75,3,6.67,11,1.94-2,5.38-4.72,9.74-4.57a1,1,0,0,1,.52,1.83c-.06,0-6.07,4.14-5.85,8.59a22.23,22.23,0,0,1,6.29,13.06c.65,6-2.2,13.73-4.09,18.86-.7,1.92-1.31,3.58-1.54,4.59-1,4.31-1.73,9,1.26,10.8a9.06,9.06,0,0,0,6.74.9,1,1,0,0,1,1,.23,1,1,0,0,1,.29,1,13.15,13.15,0,0,1-9,9A16.07,16.07,0,0,1,172,77.59Z"/>
        <path d="M166.35,86a19,19,0,0,1-5.49-.76,1,1,0,1,1,.58-1.91A19.1,19.1,0,0,0,172,83.23a8.6,8.6,0,0,0,4.36-2.88,25,25,0,0,1-4.64-.22c-4.46-.62-6.24-6.11-6.32-6.34a1,1,0,0,1,1.91-.6s1.48,4.51,4.69,5a19.67,19.67,0,0,0,6,0,1,1,0,0,1,1,.32,1,1,0,0,1,.19,1,10,10,0,0,1-6.59,5.68A21.88,21.88,0,0,1,166.35,86Z"/>
        <path d="M161.58,91.75a14.41,14.41,0,0,1-3.85-.57,12.33,12.33,0,0,1-4.54-2.48,1,1,0,1,1,1.28-1.53,10.21,10.21,0,0,0,3.8,2.08c3.79,1.07,6.17.19,7.48-.73a8.17,8.17,0,0,1-4.5-2.44c-2.87-3.08-2.64-7.67-2.63-7.86a1,1,0,0,1,2,.11c0,.08-.18,4,2.1,6.39a7,7,0,0,0,5.22,2,1,1,0,0,1,.84,1.51A8.26,8.26,0,0,1,161.58,91.75Z"/>
        <path d="M156,98.33l-.62,0c-3.05-.16-13.48-2-19.43-19.72a1,1,0,0,1,1.9-.63c5.54,16.48,14.9,18.21,17.63,18.35a6.75,6.75,0,0,0,2.32-.22,7.31,7.31,0,0,1-4.29-3.19c-2.23-3.5-.34-10.65-.12-11.45a1,1,0,1,1,1.92.53c-.53,2-1.6,7.51-.12,9.85a5.58,5.58,0,0,0,4.72,2.55,1,1,0,0,1,.79.33,1,1,0,0,1,.25.81C160.91,95.64,160.45,98.33,156,98.33Z"/>
        <path d="M129.29,82.75a5.33,5.33,0,0,1-4-1.62,1,1,0,0,1,1.52-1.3,3.54,3.54,0,0,0,3.14.87c3.48-.52,5.85-2.61,8.74-7.7a8.13,8.13,0,0,0,.56-7.07,6.52,6.52,0,0,0-4.4-3.84c-4.55-1.24-8.57,5.09-8.61,5.15a1,1,0,0,1-1.7-1c.2-.32,4.84-7.67,10.83-6a8.42,8.42,0,0,1,5.72,5,10.12,10.12,0,0,1-.66,8.82c-2.67,4.7-5.42,8-10.19,8.7A6.88,6.88,0,0,1,129.29,82.75Z"/>
        <path d="M126,72.63a1,1,0,0,1-.63-.23,1,1,0,0,1-.14-1.4,38.87,38.87,0,0,1,5.62-5.54,4.83,4.83,0,0,1,4.22-.88,4,4,0,0,1,2.71,2.27,6,6,0,0,1-.63,5,1,1,0,1,1-1.68-1.08,4,4,0,0,0,.45-3.2,2.07,2.07,0,0,0-1.38-1.09,2.8,2.8,0,0,0-2.47.53,37.93,37.93,0,0,0-5.29,5.22A1,1,0,0,1,126,72.63Z"/>
        <path d="M132.28,77.34a.7.7,0,0,1-.39-.11.75.75,0,0,1-.25-1c1.12-1.85,1.41-3.59.82-4.9a3.77,3.77,0,0,0-2.9-1.85.75.75,0,0,1,.12-1.49,5.22,5.22,0,0,1,4.15,2.72c.8,1.77.48,4-.91,6.3A.75.75,0,0,1,132.28,77.34Z"/>
        <path d="M128.79,228.77H73.19a6.61,6.61,0,0,1-6.61-6.59v-1.29a1,1,0,0,1,1-1h66.21c5.73-14.48,15-16.45,23.24-16.45h27.48v-21H145.38a1,1,0,0,1-.51-1.87c5.91-3.43,6.3-14.85,6.3-15a1,1,0,0,1,.5-.84c4.15-2.41,8.57-6.12,9.66-8.11.94-1.71-1.3-6.29-3.71-8.71-2.27-2.26-3.15-6.42-4.16-11.23-.2-.92-.4-1.86-.61-2.81a46.33,46.33,0,0,1-1-7,105.37,105.37,0,0,0-1.33-10.47A55.49,55.49,0,0,0,143,97.16,8,8,0,0,1,141.88,95a3.91,3.91,0,0,0-.43-1,15.41,15.41,0,0,0-4.26.87,1,1,0,0,1-.9-.14,1,1,0,0,1-.41-.81v-4.3a1,1,0,0,1,.32-.73l3.58-3.35,1.37,1.46-3.27,3v2.53c3.78-1,4.54-.4,4.8-.18a4.23,4.23,0,0,1,1.08,1.86,5.79,5.79,0,0,0,.8,1.64,56.65,56.65,0,0,1,7.95,20.11c.9,5.15,1.15,8.2,1.36,10.65a44.32,44.32,0,0,0,.93,6.73c.22,1,.42,1.9.61,2.83.91,4.31,1.77,8.39,3.62,10.23,2.67,2.67,5.66,8.15,4.05,11.08-1.36,2.5-6,6.25-9.93,8.6-.14,2.16-.88,9.84-5,14.23h37.32a1,1,0,0,1,1,1v23a1,1,0,0,1-1,1H157c-13.73,0-18.51,7.59-21.62,15.81a47.74,47.74,0,0,1-2.15,4.83A5,5,0,0,1,128.79,228.77Zm-60.21-6.88v.29a4.61,4.61,0,0,0,4.61,4.59h55.6a3,3,0,0,0,2.69-1.61c.52-1,1-2.1,1.52-3.27Z"/>
        <path d="M185.51,187.37H142.89a1,1,0,0,1,0-2h42.62a1,1,0,0,1,0,2Z"/>
        <ellipse cx="178.82" cy="195.24" rx="2.91" ry="5.65"/>
        <ellipse cx="12.05" cy="204.55" rx="5.25" ry="10.18" transform="translate(-31.86 4.41) rotate(-9)"/>
        <path d="M179.16,181.67l-10.76-.56,3.26-61.92a6.59,6.59,0,0,1,2.56-4.88l17.52-13.54a2.79,2.79,0,0,1,3.91.49l3.19,4.1a2.78,2.78,0,0,1-.5,3.9L183.1,121.05a2.11,2.11,0,0,0-.83,1.57Z"/>
        <path d="M128.45,214.55a1,1,0,0,1-.35-.06,1,1,0,0,1-.58-1.29c5.7-15.07,15.07-17.1,23.48-17.1h21a1,1,0,0,1,0,2H151c-8.11,0-16.35,1.91-21.61,15.81A1,1,0,0,1,128.45,214.55Z"/>
        <path d="M19,228.77H8.94a3,3,0,0,1-2.68-1.66l-1.82-3.66a3,3,0,0,1,2.69-4.31H20.9a25.5,25.5,0,0,1,6.56-11.29,24,24,0,0,1,17-7.18h0a24.43,24.43,0,0,1,24,20.05l-2,.36a22.41,22.41,0,0,0-22.08-18.41h0a22,22,0,0,0-15.61,6.59A23.32,23.32,0,0,0,22,225.62v.17A3,3,0,0,1,19,228.77Zm-11.9-7.63a1,1,0,0,0-.85.47,1,1,0,0,0,0,.95l1.81,3.66a1,1,0,0,0,.89.55H19a1,1,0,0,0,1-1v-.17a24,24,0,0,1,.42-4.48Z"/>
        <path d="M76.13,221.14a1,1,0,0,1-1-.8A31.56,31.56,0,0,0,44.6,195.06a28.61,28.61,0,0,0-12.14,2.61,1,1,0,1,1-.82-1.82,31.26,31.26,0,0,1,12.92-2.79h0a33.58,33.58,0,0,1,32.51,26.87,1,1,0,0,1-.77,1.19Z"/>
        <path d="M29.21,188.13H3.36v-2H29.21a8.57,8.57,0,0,0,8.49-7.78L40,150.58l2,.16-2.35,27.78A10.57,10.57,0,0,1,29.21,188.13Z"/>
        <rect x="49.97" y="134.04" width="11.11" height="16.62"/>
      </g>
    </g>
  </g>
</svg>
