<svg xmlns="http://www.w3.org/2000/svg" width="134.61" height="198.43" viewBox="0 0 134.61 198.43">
  <g id="Calque_2" data-name="Calque 2">
    <g id="middle-draw">
      <g>
        <path d="M57.68,66.4a.49.49,0,0,0-.69-.06,10.53,10.53,0,0,1-2.63,1.49,10.91,10.91,0,0,0,.38-4.33c-.27-3-1.42-5.42-2.57-5.32s-1.86,2.65-1.59,5.69S52,69.3,53.15,69.19h.1a10.53,10.53,0,0,0,4.37-2.1A.48.48,0,0,0,57.68,66.4Z"/>
        <path d="M51.67,56.12a3.23,3.23,0,0,1,4.15,1.13c1.46,2,3.07,4.76,3.4,5.19s.92.21.65-1.32S57.41,55.53,55,54.18a4.55,4.55,0,0,0-5.67.51C49,55.1,50.29,58,50.72,58S50.94,56.52,51.67,56.12Z"/>
        <ellipse cx="61.5" cy="73.49" rx="4.8" ry="4.79"/>
        <path d="M130.68,78.16a19.46,19.46,0,0,1-6,0A4.28,4.28,0,0,1,122.4,77c2.48-.1,6.77-.74,8.66-3.86A1,1,0,0,0,131,72a1,1,0,0,0-1.09-.34c-.09,0-2.42.71-5.71-1.22-2.17-1.26.19-6.08,2.47-10.74.72-1.47,1.47-3,2.12-4.5,2.79-6.39,6.61-15.14,5.69-23.63a22.17,22.17,0,0,0-6.29-13.06C128,14.08,134,10,134,10a1,1,0,0,0-.53-1.83c-4.31-.14-7.79,2.58-9.73,4.56-.92-8-6.43-10.88-6.68-11a1,1,0,0,0-1,1.75c1.15.67,1.33,4,1.09,6.72L106.86,4.68C94.89-1.62,77.23-.93,66,3,56.59,6.29,35,16.68,36.76,42.28c.21,3,.7,9.91,5.52,16.14q.06.55.12,1c.09.81.17,1.47.2,1.9.25,2.87-.18,4.11-.42,4.24a.35.35,0,0,1-.15,0A4.68,4.68,0,0,0,37.51,67,4.07,4.07,0,0,0,37,71.45a4.37,4.37,0,0,0,4.82,2.92,6.71,6.71,0,0,1-.93,3.53,1,1,0,0,0,.28,1.44,12.83,12.83,0,0,0,5.64,1.44c2.45.15,5.39-1,7.17-1.88-.78,5.39-5.87,7.88-6.1,8A1,1,0,0,0,47.28,88c.41,2.56,4,5.74,7.67,6.79,4.13,1.18,10.07,1.18,12.47,1.12V102c-1.49.9-5.45,3.52-6.09,6.17-1.89,7.89-4.07,18.31-5.08,24.19a12.27,12.27,0,0,0-9.15-3.71,21.68,21.68,0,0,0-7.65,1.17,12,12,0,0,0-7.13,6.35c-2.21,4.29-4.78,11.51-6.87,19.32-2.95,11-4.41,20-4.42,20.09-.08.42-.66,3.54.59,5.44-.48.34-1.13.8-1.9,1.32l-2.27,1.49c-1.14.72-2.42,1.46-3.76,2.18l-3.49,1.61a.81.81,0,0,0-.24.17,23.9,23.9,0,0,1-4.07,1.3c-5.56,1.17-6.09,4.7-5.84,8.35a1.08,1.08,0,0,0,1.08,1H34.22a1,1,0,0,0,.49-.12c.17-.08,3.93-2.05,2.9-7.39l-.89-4.59,0-.05A40,40,0,0,0,41.06,182c.79-.86,1.54-1.67,2.12-2.22.41-.39.9-.84,1.44-1.33a57,57,0,0,0,5.07-5.06c1.35,3.1,4.27,9.39,6.86,11.89a45.47,45.47,0,0,0,32.18,13.05c10.16,0,23.06-2.66,26.83-15.36,2.27-7.66,3.58-14.48-1.92-26.46-4.85-10.56-4.82-11.95-4.77-15.32,0-.41,0-.85,0-1.33,0-4.78-3.33-28.16-6.87-35.42-3.29-6.77-7-10.16-11.43-10.39V91.62l2.9-2.91c5.65,8.35,12.25,9.48,14.58,9.6l.62,0c4.48,0,4.93-2.69,5-2.81a1,1,0,0,0-.25-.82,1,1,0,0,0-.79-.32,5.57,5.57,0,0,1-4.71-2.55,5.19,5.19,0,0,1-.67-2.16,11.46,11.46,0,0,0,3.22,1.5,14.08,14.08,0,0,0,3.86.58,8.31,8.31,0,0,0,7.2-3.5,1,1,0,0,0-.85-1.51,8,8,0,0,1-3.63-.82c.67.06,1.35.11,2,.11a21.86,21.86,0,0,0,6.17-.88,10,10,0,0,0,6.59-5.68,1,1,0,0,0-.19-1A1,1,0,0,0,130.68,78.16ZM23.59,182.47c1.93,1,3.66,1.93,5.17,2.67A10.61,10.61,0,0,0,27,188.23l-4.76-5,1.22-.89ZM24,196.25l-4.9-10.93,1.24-.81,6,6.23a12.94,12.94,0,0,0,.61,5.51Zm-16,0,.18-5.55c.52-.16,1-.34,1.57-.53l.93,6.08H8.05Zm3.82-6.94c.57-.25,1.14-.52,1.7-.8l2.07,7.75H12.93Zm5.4-2.83,4.38,9.77H17.9l-2.35-8.78C16.14,187.13,16.72,186.8,17.27,186.47ZM6,191.27l-.15,5H2.18C2.13,193.52,2.88,192,6,191.27Zm29.44.07c.6,3.11-1,4.52-1.55,4.91H29.27c-2.16-5.82.48-9.13,1.53-10.14a12.37,12.37,0,0,0,3.48,1.21h.11a2.54,2.54,0,0,0,.29,0Zm64.76-86c3.35,6.89,6.66,30,6.66,34.55,0,.47,0,.9,0,1.3-.06,3.69-.08,5.21,4.95,16.18a42.67,42.67,0,0,1,3,8.79c-.39.34-9,7.69-19.12,7.08-9.94-.6-13.09-5.64-17.86-13.28l-.62-1a1,1,0,0,0-1.7,1.06l.63,1c4.91,7.87,8.46,13.55,19.42,14.22.46,0,.91,0,1.36,0,8.64,0,15.78-4.9,18.3-6.86.71,5.28-.28,9.49-1.62,14-2.74,9.24-11.12,13.93-24.91,13.93a43.52,43.52,0,0,1-30.79-12.49c-2.6-2.51-5.81-9.8-6.82-12.2a105.6,105.6,0,0,0,9.34-8.15A1,1,0,0,0,59.09,162c-2.22,2.08-4.63,4.26-6.47,5.86l4.2-8.54a1,1,0,1,0-1.8-.88l-3.87,7.9c-.06-2.49-.39-5.12-1.27-6.22a1,1,0,0,0-1.41-.15,1,1,0,0,0-.15,1.4c1,1.21,1,7.9.58,9.58-.28,1.06-3.77,4.27-5.64,6l-1.46,1.36c-.63.6-1.4,1.43-2.21,2.31-1.4,1.51-4.3,4.64-5.18,4.68a12.75,12.75,0,0,1-3.1-1.17,1.07,1.07,0,0,0-.7-.33c-2.27-1.09-4.87-2.47-6.08-3.11l-.47-.25a1,1,0,0,0-.53-.34c-.88-.74-.76-3.08-.53-4.21,0-.09,1.46-9,4.38-19.94,2.06-7.67,4.57-14.74,6.72-18.91a10,10,0,0,1,6-5.38,19.7,19.7,0,0,1,7-1.06A10.08,10.08,0,0,1,56,135.23a1,1,0,0,0,1,.49,1,1,0,0,0,.81-.84c.73-5,3.26-17.27,5.42-26.27.41-1.69,3.67-4.09,5.63-5.2l0,0h0c9-5.68,20-7.23,20.73-7.33C92.21,95.89,96,96.69,100.23,105.31ZM88.89,90.5a1,1,0,0,0-.3.7v3a59.24,59.24,0,0,0-19.17,6.58V94.84a1,1,0,0,0-.31-.73,1,1,0,0,0-.74-.27c-.08,0-8,.37-12.87-1a10.69,10.69,0,0,1-6-4.55c1.92-1.15,6.74-4.67,6.57-11.11a1,1,0,0,0-.52-.85,1,1,0,0,0-1,0c-.05,0-4.53,2.64-7.63,2.44A13.42,13.42,0,0,1,43,78a10.22,10.22,0,0,0,.7-5,1,1,0,0,0-.47-.76,1,1,0,0,0-.9-.07,2.61,2.61,0,0,1-3.55-1.5,2.16,2.16,0,0,1,.19-2.4,2.68,2.68,0,0,1,2.5-.77,2.14,2.14,0,0,0,2-.38c.38-.32,1.53-1.28,1.13-6,0-.44-.12-1.11-.21-1.95a98.73,98.73,0,0,1-.82-11.51,13.43,13.43,0,0,0,4.53,4.16,1,1,0,0,0,.48.13,1,1,0,0,0,.55-.17,1,1,0,0,0,.45-.92,25.52,25.52,0,0,1,2-11.18c1,4.81,4.41,16.57,13.52,21.5a1,1,0,0,0,1.25-1.5,17.56,17.56,0,0,1-3-8.85,31.66,31.66,0,0,1,6.22,16.55,1,1,0,0,0,.83.91h.17a1,1,0,0,0,.91-.61,22,22,0,0,0,.94-2.8,27.2,27.2,0,0,1,2.37,5.55c.67,2.11,1.76,3.44,3.24,4a4.12,4.12,0,0,0,1.35.23,5.61,5.61,0,0,0,2.86-.86,1,1,0,0,0,.37-1.21,1,1,0,0,0-1.1-.6A2.24,2.24,0,0,1,80,72a1.31,1.31,0,0,1-.11-.12c.44-.51,1.26-1.43,2.27-2.44a.93.93,0,0,0,.13,0,3.71,3.71,0,0,1,2.9,1.85c.6,1.3.3,3-.82,4.9a.75.75,0,0,0,.25,1,.79.79,0,0,0,.39.11.75.75,0,0,0,.64-.36c1.39-2.29,1.71-4.53.91-6.3a4.76,4.76,0,0,0-3.08-2.51c.44-.39.89-.77,1.35-1.13a2.8,2.8,0,0,1,2.47-.53,2.11,2.11,0,0,1,1.39,1.09,4,4,0,0,1-.46,3.2,1,1,0,1,0,1.68,1.08,6,6,0,0,0,.63-5,4,4,0,0,0-2.71-2.27,4.83,4.83,0,0,0-4.22.88,36,36,0,0,0-4.22,3.94c0-.27-.05-.56-.07-.86l-.07-.91c0-.23,0-.43-.06-.65.82-1.19,4.41-6,8.43-4.9A6.51,6.51,0,0,1,92,65.93,8.13,8.13,0,0,1,91.45,73c-2.9,5.1-5.27,7.19-8.75,7.71a3.55,3.55,0,0,1-3.14-.87A1,1,0,0,0,78,81.13a5.37,5.37,0,0,0,4,1.62,7,7,0,0,0,1-.07,10.81,10.81,0,0,0,6-3A42.92,42.92,0,0,0,92.39,87Zm35.78-7.27a19.22,19.22,0,0,1-10.15.22,10.7,10.7,0,0,1-1.19-5.12,1,1,0,0,0-2-.11A12.37,12.37,0,0,0,113,84.79h0a9,9,0,0,0,1,1.29,8.2,8.2,0,0,0,4.51,2.44c-1.31.92-3.68,1.81-7.49.73a10.36,10.36,0,0,1-3.8-2.08h0A27.25,27.25,0,0,1,108,82a1,1,0,0,0-1.93-.53c-.22.8-2.1,8,.12,11.45a7.34,7.34,0,0,0,4.29,3.19,6.48,6.48,0,0,1-2.32.22C105.44,96.17,96.1,94.44,90.55,78a31.65,31.65,0,0,0,2.64-4,10.15,10.15,0,0,0,.66-8.82,8.46,8.46,0,0,0-5.72-5c-4-1.1-7.42,1.83-9.29,4a23.37,23.37,0,0,0-.51-2.61,1,1,0,0,0-1.92.55,34.47,34.47,0,0,1,.83,5.7l.07.9A16.9,16.9,0,0,0,77.74,72a5.52,5.52,0,0,1-1.08-2c-1.47-4.62-3-6.75-3.69-7.59A20.28,20.28,0,0,0,73.24,58a1,1,0,0,0-1-.94,1,1,0,0,0-1,1.05,18.62,18.62,0,0,1-.38,4.62A31.81,31.81,0,0,0,63.34,47.8a20.63,20.63,0,0,1,.39-2.68,1,1,0,0,0-2-.42,23.57,23.57,0,0,0-.47,3.47v0a21,21,0,0,0,1.35,8.88c-7.59-6.88-9.46-19.55-9.48-19.69A.91.91,0,0,0,53,37a17.85,17.85,0,0,1,2.87-3.42,1,1,0,0,0-1.36-1.47c-6,5.54-6.93,13.35-7,17-5.32-4.3-5.26-12.52-5.26-12.61a1,1,0,0,0-1-1,1,1,0,0,0-1,1,22.5,22.5,0,0,0,1.55,8,44.48,44.48,0,0,0,0,9.66,29,29,0,0,1-3.1-12C37.07,17.91,57.69,8,66.63,4.9,77.48,1.1,94.46.42,105.93,6.45l11.65,6.13a1,1,0,0,0,1.46-.73,24.38,24.38,0,0,0,.22-5.61,14.39,14.39,0,0,1,2.64,9,1,1,0,0,0,1.82.58A16.3,16.3,0,0,1,130,10.75c-2,2-4.17,5-3.76,8.39a1,1,0,0,0,.33.62,20.27,20.27,0,0,1,5.92,12c.87,8-2.83,16.43-5.53,22.62-.64,1.46-1.38,3-2.09,4.43-2.8,5.73-5.45,11.14-1.68,13.34a11.64,11.64,0,0,0,4.43,1.56c-2.49,1.43-6.15,1.3-6.79,1.27a12.16,12.16,0,0,1-.85-1.85,1,1,0,0,0-1.9.61c.07.23,1.86,5.72,6.32,6.34a24.88,24.88,0,0,0,4.63.22A8.57,8.57,0,0,1,124.67,83.23Z"/>
      </g>
    </g>
  </g>
</svg>
