<svg xmlns="http://www.w3.org/2000/svg" width="138.07" height="47.36" viewBox="0 0 138.07 47.36">
  <g id="Calque_2" data-name="Calque 2">
    <g id="side-1-draw">
      <path d="M137.07,47.36H1a1,1,0,0,1-1-1V1A1,1,0,0,1,1,0H137.07a1,1,0,0,1,1,1V46.36A1,1,0,0,1,137.07,47.36ZM2,45.35H136.06V2H2Z"/>
      <path d="M18,32.75a4,4,0,0,1-2.56-1.06,3.38,3.38,0,0,1-1.28-3A4.89,4.89,0,0,1,15,26.47a4,4,0,0,1-2.82-1,4.52,4.52,0,0,1-1.41-3.7,3.35,3.35,0,0,1,1.57-2.62,4.54,4.54,0,0,1,2.42-.56c-.09-.15-.19-.32-.31-.5a3.08,3.08,0,0,1-.32-3.41,2.84,2.84,0,0,1,2.61-1.14,4.68,4.68,0,0,1,2.83,1.24,5,5,0,0,1,1.21-1.58,4.18,4.18,0,0,1,3.87-.7,3.24,3.24,0,0,1,2.24,2.23,3.59,3.59,0,0,1,0,1.92,7.29,7.29,0,0,1,1.69-.1c1.53.09,3,1.58,3.76,2.83a3.55,3.55,0,0,1-1,4.5,8.9,8.9,0,0,1-3,1.25,4.2,4.2,0,0,1,.26.44,5.5,5.5,0,0,1-.23,4.77,3.74,3.74,0,0,1-1,1.43,3.14,3.14,0,0,1-2.36.69,3.92,3.92,0,0,1-2.62-1.4,4.45,4.45,0,0,1-.45-.68l-.18.19C21.18,31.21,19.78,32.75,18,32.75Zm-.25-8.58a1,1,0,0,1,1,.73,1,1,0,0,1-.49,1.16,5,5,0,0,0-2.06,2.82,1.37,1.37,0,0,0,.58,1.28c1.3,1.1,2.22.55,3.57-.94l.33-.34a3,3,0,0,0,.75-1.63c0-.26.06-.54.11-.82a1,1,0,0,1,2,.27,6.55,6.55,0,0,1-.1.79A3.35,3.35,0,0,0,24,29.8a1.9,1.9,0,0,0,1.25.66,1.2,1.2,0,0,0,.87-.23,2,2,0,0,0,.49-.71,3.65,3.65,0,0,0,.26-3.06,2.29,2.29,0,0,0-1.21-1.06A2.2,2.2,0,0,1,24.45,25a1,1,0,0,1-.27-1.22,1,1,0,0,1,1.12-.54,8.41,8.41,0,0,1,.88.26,9.29,9.29,0,0,0,3.88-1.13,1.59,1.59,0,0,0,.52-1.89,3.93,3.93,0,0,0-2.17-1.89,5,5,0,0,0-3.05.84,6.71,6.71,0,0,1-1.51,1.51,1,1,0,0,1-1.43-1.37A7,7,0,0,1,23.92,18c.12-.17.25-.38.41-.62a2.77,2.77,0,0,0,.61-2.08,1.29,1.29,0,0,0-.91-.83,2.19,2.19,0,0,0-2,.32h0A3.52,3.52,0,0,0,21,17a3.77,3.77,0,0,1,.12,1.76,1,1,0,0,1-1.95.12,5.32,5.32,0,0,1-.2-1.6,2.73,2.73,0,0,0-.38-.62,2.83,2.83,0,0,0-1.94-1.08,1,1,0,0,0-.82.23c-.13.2,0,.71.34,1.24.13.2.25.39.35.57A4.31,4.31,0,0,0,18,19.26,1,1,0,0,1,17,21a3.6,3.6,0,0,0-2-.4h-.21a2.62,2.62,0,0,0-1.42.27A1.39,1.39,0,0,0,12.76,22a2.51,2.51,0,0,0,.75,2c.67.61,1.48.53,2.85.34.41-.06.84-.11,1.27-.15ZM21.42,14h0Z"/>
      <path d="M70.75,32.27a3.16,3.16,0,0,1-2.4-1A6.92,6.92,0,0,1,67,27a5.26,5.26,0,0,1-.94.78c-1.47,1-3.66,2.16-5.55,1a3.59,3.59,0,0,1-1.06-4.7A4.8,4.8,0,0,1,61.89,22c-1.59-1.14-2.65-3.48-1.63-5.39s3.65-2.33,5.46-1.55l.29.14a4.83,4.83,0,0,1,1.27-3.51,2.54,2.54,0,0,1,2.54-.8,2.47,2.47,0,0,1,1.59,1.88,5.24,5.24,0,0,1,3.52-2,3.78,3.78,0,0,1,2.91.84,4.42,4.42,0,0,1,.91,5.08,6.52,6.52,0,0,1-1,1.69,8.92,8.92,0,0,1,2.88,1,5.44,5.44,0,0,1,2.56,2.57,3.53,3.53,0,0,1-.68,3.94,5.07,5.07,0,0,1-3.71,1,12.6,12.6,0,0,1-4-.69,6.72,6.72,0,0,1,.16,3.19,3.86,3.86,0,0,1-4,3ZM68.1,23a1,1,0,0,1,.34.06,1,1,0,0,1,.65,1.09c-.24,1.66-.25,4.7.74,5.78a1.16,1.16,0,0,0,1,.38c1.6-.09,2-.87,2.11-1.46a6.27,6.27,0,0,0-1.24-4.46L71.3,24a1,1,0,0,1-.17-1.34,1,1,0,0,1,1.32-.3,2.76,2.76,0,0,1,.59.47,8.79,8.79,0,0,0,5.77,1.93,3.39,3.39,0,0,0,2.28-.42,1.54,1.54,0,0,0,.21-1.67,3.57,3.57,0,0,0-1.66-1.59,5.91,5.91,0,0,0-4.74-.54,6.85,6.85,0,0,1-2.61,1,1,1,0,0,1-.48-1.89,13.71,13.71,0,0,1,2.27-1l.4-.23a5.85,5.85,0,0,0,2.43-2.62,2.51,2.51,0,0,0-.38-2.76,1.75,1.75,0,0,0-1.38-.36A3.21,3.21,0,0,0,73,13.94a11.91,11.91,0,0,0-1.59,5.59,1,1,0,0,1-1.09.91,1,1,0,0,1-.92-1.07l0-.63a28.81,28.81,0,0,0,.12-5c-.1-.78-.29-1-.35-1s-.27.05-.5.28a3,3,0,0,0-.64,2.62A24.19,24.19,0,0,0,69.14,19a1,1,0,0,1-.53,1.28,1,1,0,0,1-1.3-.46c-.53-1-1.62-2.65-2.39-3a2.35,2.35,0,0,0-2.89.66c-.49.91.18,2.23,1.08,2.84a5.79,5.79,0,0,0,2.78.51,1,1,0,0,1,1,.82,1,1,0,0,1-.66,1.14,24.35,24.35,0,0,1-2.71.73A3.29,3.29,0,0,0,61.19,25a1.63,1.63,0,0,0,.36,2.05c.68.43,1.78.12,3.37-.94a10.15,10.15,0,0,0,2.32-2.69A1,1,0,0,1,68.1,23Z"/>
      <path d="M116.91,33.45A4.72,4.72,0,0,1,113,30.81a5.25,5.25,0,0,1-3.92,1.73h0A4.12,4.12,0,0,1,105,29.69c-.78-2.42.6-4.87,2.12-6.36a6.34,6.34,0,0,1-.82-.42,3.58,3.58,0,0,1,1.45-6.66,3.5,3.5,0,0,1,1.58.09v-.45a4.7,4.7,0,0,1,1.82-3.64,3.37,3.37,0,0,1,2.93-.5c1.68.47,2,2.46,2.09,4.47,1.31-2.14,3.29-4.46,5.51-3.84a3,3,0,0,1,1.35.79,3.22,3.22,0,0,1,.73,1.79c.2,1.65-.8,3.24-2,4.51a11,11,0,0,1,2.94-.11,3.37,3.37,0,0,1,1.89.77,3.16,3.16,0,0,1,.84,2.52,4.76,4.76,0,0,1-.79,2.75,4.62,4.62,0,0,1-5.31,1.36,7,7,0,0,1-.15,3,4.86,4.86,0,0,1-3.43,3.55A4.34,4.34,0,0,1,116.91,33.45ZM114.54,27a9.8,9.8,0,0,0-.29,1.67c.38,1.53,1.69,3,3,2.75a3,3,0,0,0,1.93-2.15,5.08,5.08,0,0,0-.82-4.33c-.42-.38-.82-.79-1.2-1.17a1,1,0,0,1-.1-1.3,1,1,0,0,1-.54-.52,1,1,0,0,1,.41-1.27c1.32-.77,5-3.42,4.78-5.45a1.31,1.31,0,0,0-.21-.68.89.89,0,0,0-.43-.21c-1.32-.4-3.72,3.26-4.7,5.84a1,1,0,0,1-.93.64,1,1,0,0,1-.94-.62,9.11,9.11,0,0,1-.35-2.85c0-1-.12-3.49-.67-3.65h0a1.32,1.32,0,0,0-1.21.21,2.72,2.72,0,0,0-1,2.1,3.32,3.32,0,0,0,.64,2A9.75,9.75,0,0,1,113,19.2a1,1,0,0,1-.11,1.32,1,1,0,0,1-1.32.06,6.73,6.73,0,0,1-1.17-1.24,3.25,3.25,0,0,0-2.35-1.12c-.32.06-1.37.32-1.55,1.22a1.69,1.69,0,0,0,.8,1.77,3,3,0,0,0,1.88.46l1-.09a2.82,2.82,0,0,1,.8,0,1,1,0,0,1,.92,1,1,1,0,0,1-.92,1l-.54,0a4.06,4.06,0,0,0-1.79,1c-1.23,1.1-2.33,3-1.84,4.53a2.17,2.17,0,0,0,2.18,1.45h0A3.08,3.08,0,0,0,112,28.59c.1-.3.31-1.08.53-1.92.15-.66.35-1.44.61-2.34a1,1,0,0,1,1.94.53Zm5.29-3.46a6.8,6.8,0,0,0,2.07,1.34,2.69,2.69,0,0,0,3-.61,3.09,3.09,0,0,0,.43-1.65c0-.68-.13-.92-.22-1a1.72,1.72,0,0,0-.78-.24,18.3,18.3,0,0,0-5.87.9A6.68,6.68,0,0,1,119.83,23.52Z"/>
      <path d="M21,27.6a6.61,6.61,0,0,1-.76-.05,5.77,5.77,0,0,1-3.89-2.44,4.63,4.63,0,0,1-.77-3.67,4.55,4.55,0,0,1,3-3.24C20,17.77,22.66,18,24,19.42h0c1.4,1.54,2.35,4.09,1.14,6.07A4.83,4.83,0,0,1,21,27.6ZM20.08,20a3.15,3.15,0,0,0-.88.11,2.54,2.54,0,0,0-1.66,1.79A2.59,2.59,0,0,0,18,24a3.75,3.75,0,0,0,2.51,1.59,3,3,0,0,0,2.89-1.12c.72-1.17-.15-2.83-.91-3.66A3.56,3.56,0,0,0,20.08,20Z"/>
      <path d="M69.35,25.1c-1.79,0-3.92-.69-4.35-2.66s1.2-3.58,3-4c1.57-.41,4.54.21,5.26,1.74h0a3.53,3.53,0,0,1-.5,3.74,4.1,4.1,0,0,1-3.15,1.22Zm-.27-4.82a2.45,2.45,0,0,0-.62.07c-.83.22-1.65,1-1.5,1.65s1.4,1.13,2.54,1.09a2.33,2.33,0,0,0,1.69-.52,1.55,1.55,0,0,0,.2-1.58A3.81,3.81,0,0,0,69.08,20.28Z"/>
      <path d="M114.7,25.65a7.27,7.27,0,0,1-2-.31,4.2,4.2,0,0,1-2.07-1.17,3,3,0,0,1-.6-2.46,3.61,3.61,0,0,1,1.79-2.46,5,5,0,0,1,4.74.32l.69.3.08,0A2.55,2.55,0,0,1,118.58,22a3.34,3.34,0,0,1-1.3,2.84A4.31,4.31,0,0,1,114.7,25.65Zm-1-4.85a2.09,2.09,0,0,0-1,.23,1.59,1.59,0,0,0-.76,1.06.93.93,0,0,0,.16.77,2.35,2.35,0,0,0,1.09.55,3.6,3.6,0,0,0,2.88-.16,1.3,1.3,0,0,0,.47-1.09.58.58,0,0,0-.21-.47l-.68-.3-.09-.05A4,4,0,0,0,113.72,20.8Z"/>
    </g>
  </g>
</svg>
