<svg xmlns="http://www.w3.org/2000/svg" width="72.35" height="101.82" viewBox="0 0 72.35 101.82">
  <g id="Calque_2" data-name="Calque 2">
    <g id="side-2-draw">
      <path d="M72.11,25.89a44.76,44.76,0,0,0-2.44-11.72C66.77,6.1,61.79,1.29,55.29.27c-15.52-2.44-23,12.31-23,12.46a1.8,1.8,0,0,0-.08.21c-.05.22-5.3,22.3-7.85,26.75-1.08,1.9-2.34,4.39-3.55,6.79a61.7,61.7,0,0,1-3.56,6.58c-.79.52-12.28,10.25-12.83,15.59-.08.83-.21,1.65-.33,2.47-.44,2.81-.87,5.69.4,8.32-1.47,2-4.36,6-4.44,7,0,.14,0,.42,0,.77,0,0,0,.05,0,.07,0,2.13.49,7.19,2.09,9.17a.51.51,0,0,0,.21.15,8.22,8.22,0,0,0,.14,1.08c.43,1.9,3,2.2,3.72,2.25a26.32,26.32,0,0,0,2.15,1.76,1,1,0,0,0,.48.1,12.25,12.25,0,0,0,4-1.29.39.39,0,0,0,.17-.11c.18-.2,1.79-1.91,2.19-2.48a2.34,2.34,0,0,0,0-2.79A3.11,3.11,0,0,0,12.81,94,38.25,38.25,0,0,0,17,88.77a18.09,18.09,0,0,0,4.23,1.62c.29,0,.75.17,1.29.31a23.83,23.83,0,0,0,6.36,1,14.62,14.62,0,0,0,8.78-2.82c5.34-3.87,6.1-6,6.84-8.14a15.8,15.8,0,0,1,.73-1.8A185.56,185.56,0,0,1,58.34,59.48c3.73-4.54,10.46-15.81,12.23-21.12C72.27,33.26,72.69,29.88,72.11,25.89ZM18.32,54.73c.55-.37,1.25-1.52,2.59-4.1a.51.51,0,0,0,.4,0,25.88,25.88,0,0,1,4.35-1,1.77,1.77,0,0,1,1,0c.39.2.56.79.68,1.32l.86,3.67c.13.59.55,2.39,2,2.64A2.91,2.91,0,0,0,31.87,57a3.52,3.52,0,0,1,.79-.27,1.57,1.57,0,0,1,1.62.82,4.19,4.19,0,0,1,.24.8A2.82,2.82,0,0,0,35.26,60a2.94,2.94,0,0,0,2.2.54,6.56,6.56,0,0,0,2.31-.39q.24-.1.48-.24a2.81,2.81,0,0,1,.74-.3,1.71,1.71,0,0,1,1.47.6,6.6,6.6,0,0,1,.89,1.22c.1.15.19.3.29.44a12.23,12.23,0,0,0,6.92,5c-1.1,1.62-2.19,3.26-3.18,4.79a6.12,6.12,0,0,1-5.87-3.86c-.06-.15-.11-.31-.16-.46a3.38,3.38,0,0,0-1.64-2.37c-1.08-.44-2.09.16-3,.68s-1.47.87-2.09.64-.93-1.08-1.12-1.79A3.77,3.77,0,0,0,32,61.86a3.68,3.68,0,0,0-1.4-.38,7.94,7.94,0,0,0-1.88,0,8.51,8.51,0,0,0-1.16.25c-.29.08-.58.16-.87.21a1.9,1.9,0,0,1-1.52-.3A2.55,2.55,0,0,1,24.67,60,3.77,3.77,0,0,0,24,58a3.07,3.07,0,0,0-3.18-.71c-.4.11-.78.26-1.17.41a6.87,6.87,0,0,1-1.5.48,3.47,3.47,0,0,1-2.81-.87A36.91,36.91,0,0,1,18.32,54.73ZM14.62,58a4.48,4.48,0,0,0,3.69,1.18A8.82,8.82,0,0,0,20,58.63a10.31,10.31,0,0,1,1.06-.38,2.14,2.14,0,0,1,2.15.38,3,3,0,0,1,.44,1.52,3.35,3.35,0,0,0,.81,2.16,2.67,2.67,0,0,0,2.37.56,8,8,0,0,0,1-.22,6.86,6.86,0,0,1,1-.23,7.15,7.15,0,0,1,1.64.06,2.47,2.47,0,0,1,1,.25c.6.34.83,1.2,1,2a3.28,3.28,0,0,0,1.73,2.48,3.44,3.44,0,0,0,2.95-.71c.79-.47,1.48-.88,2.09-.62s.82,1,1.08,1.75c.06.17.11.33.17.49a7.09,7.09,0,0,0,6.17,4.52c-.83,1.29-1.56,2.46-2.14,3.43a7.92,7.92,0,0,1-1.89-.16,3.44,3.44,0,0,1-2.16-1.34A6,6,0,0,1,40,73.28a4.85,4.85,0,0,0-.94-1.85c-1.24-1.34-3.38-1.1-5-.27l-.42.24a6.1,6.1,0,0,1-1.07.51,1.38,1.38,0,0,1-1.23-.09c-.42-.31-.52-1-.63-1.73-.19-1.25-.68-2-1.47-2.26a2.62,2.62,0,0,0-2.05.41c-.17.09-.33.17-.5.24A3,3,0,0,1,23,67a6.52,6.52,0,0,1-.38-2.08l0-.47a1.41,1.41,0,0,0-.24-.78,1.43,1.43,0,0,0-1-.53,12.29,12.29,0,0,0-4.11.29,15.22,15.22,0,0,1-2.86.36,2.62,2.62,0,0,1-1-.14,2,2,0,0,1-1-1.42,6.33,6.33,0,0,1-.05-1.9C13.06,59.48,13.87,58.69,14.62,58ZM1.08,88.78c.37.43.83.94,1.34,1.46,0,.66-.16,2.65-.16,4.49A21.6,21.6,0,0,1,1.08,88.78Zm2.35,8.71a34.6,34.6,0,0,1-.06-6.32c.43.4.87.79,1.32,1.14a46.05,46.05,0,0,0,.65,6.52C4.56,98.67,3.61,98.3,3.43,97.49Zm10.88-1.84a1.35,1.35,0,0,1,0,1.71c-.28.41-1.5,1.74-2,2.3a16.93,16.93,0,0,1-3.47,1.2c-.35-.21-1.66-1.34-2.49-2.08C6.22,98,5.75,94.87,5.69,93l.45.26a.64.64,0,0,0,.23,0A.51.51,0,0,0,6.82,93a.52.52,0,0,0-.22-.68c-2.22-1.13-5-4.54-5.6-5.23a5,5,0,0,1,0-.58c.07-.56,2-3.4,4-6.16a9.6,9.6,0,0,0,2.07,2.2,61,61,0,0,0,9.07,5.74,47,47,0,0,1-4.79,5.8v0l-.28.3a3.51,3.51,0,0,0-2.12,0,.5.5,0,0,0,.26,1,3.47,3.47,0,0,1,1.09-.1l-1.14,1.2a.5.5,0,0,0,0,.71.52.52,0,0,0,.35.14.51.51,0,0,0,.36-.15c.15-.16.54-.56,1.05-1.12a8.38,8.38,0,0,1,0,1.86.51.51,0,0,0,.44.56h.06a.5.5,0,0,0,.5-.44,7.31,7.31,0,0,0-.14-2.85l.2-.22C12.69,95,14,95.11,14.31,95.65ZM42.63,80.08c-.7,2-1.3,3.68-6.13,7.18C31.35,91,26,89.54,23.06,88.76c-.62-.16-1.1-.29-1.51-.36a18.51,18.51,0,0,1-4.17-1.69A59,59,0,0,1,8.31,81C5,78.38,5.46,75.16,6,71.42c.13-.84.26-1.7.35-2.56.2-1.9,2.39-4.78,4.84-7.45a5.07,5.07,0,0,0,.12,1A3,3,0,0,0,13,64.56a3.47,3.47,0,0,0,1.33.21,18.4,18.4,0,0,0,3.07-.37,11.15,11.15,0,0,1,3.78-.29c.28,0,.35.1.36.13a.73.73,0,0,1,.06.28l0,.45a7,7,0,0,0,.47,2.41,4,4,0,0,0,5.06,2c.19-.08.37-.17.56-.27a1.93,1.93,0,0,1,1.3-.35c.49.16.69.88.79,1.55a3.26,3.26,0,0,0,1,2.3,2.33,2.33,0,0,0,2.13.23,6.25,6.25,0,0,0,1.25-.59l.4-.23c1.19-.63,2.87-.88,3.75.07a4.32,4.32,0,0,1,.73,1.49,6.63,6.63,0,0,0,.64,1.48,4.38,4.38,0,0,0,2.78,1.77A8.85,8.85,0,0,0,44,77c-.23.4-.43.76-.57,1A17.27,17.27,0,0,0,42.63,80.08Zm26-42.36c-1.55,4.65-8,15.75-11.88,20.49-1.47,1.78-3.55,4.67-5.64,7.72a11.14,11.14,0,0,1-6.68-4.66l-.27-.42a7.57,7.57,0,0,0-1-1.39,2.71,2.71,0,0,0-2.35-.88,3.51,3.51,0,0,0-1,.4l-.41.2a5.79,5.79,0,0,1-2,.31,2.13,2.13,0,0,1-1.49-.27,2.11,2.11,0,0,1-.44-1.07,4.26,4.26,0,0,0-.31-1,2.57,2.57,0,0,0-2.69-1.38,4.61,4.61,0,0,0-1,.34,2.13,2.13,0,0,1-1.11.27c-.53-.1-.92-.71-1.19-1.89l-.85-3.66a2.83,2.83,0,0,0-1.2-2,2.66,2.66,0,0,0-1.61-.15,28.3,28.3,0,0,0-4.08.91c.34-.66.71-1.39,1.12-2.21,1.2-2.38,2.45-4.85,3.51-6.71,2.61-4.56,7.56-25.2,8-27.16C34.73,12.33,41.52.14,55,2.26,69,4.45,70.09,25.81,70.1,26c0,0,0,.07,0,.1C70.66,29.84,70.28,32.88,68.67,37.72Z"/>
    </g>
  </g>
</svg>
